# This file uses centimeters as units for non-parametric coordinates.

mtllib 1point2.mtl
g default
v -1.206853 -0.174523 0.087515
v -1.197274 -0.041106 0.108348
v -1.168823 0.024070 0.004370
v -1.206853 -0.174523 0.087515
v -1.180452 -0.264054 0.141777
v -1.206853 -0.174523 0.087515
v -1.161857 -0.184696 0.017686
v -1.056919 -0.192383 0.018662
v -1.092037 -0.286633 -0.111818
v -0.983926 -0.168207 0.017462
v -0.963482 -0.116632 -0.060256
v -0.253980 -0.139422 -0.040431
v -0.233048 -0.031268 -0.071839
v -0.112623 -0.138563 -0.166045
v -0.129777 0.038915 -0.087794
v 0.001457 -0.146919 -0.164984
v -0.044735 0.032685 -0.087004
v 0.034423 -0.145016 -0.096444
v -0.005472 -0.002822 -0.030876
v -0.010147 -0.060805 0.015141
v 0.034487 0.141496 0.002476
v -0.005863 0.002546 0.053480
v -0.045621 0.044857 0.104290
v -0.027023 -0.122510 0.187462
v -0.114258 -0.116120 0.186651
v -1.034943 0.117327 0.095093
v -1.077072 -0.045592 0.177700
v -0.969927 0.034653 0.110020
v -1.119985 0.123556 0.094302
v -1.056384 0.353274 0.030370
v -1.135325 0.359057 0.029636
v -1.134896 0.353172 -0.062841
v -1.183261 0.230698 -0.008845
v -1.164147 0.082053 -0.041647
v -1.168823 0.024070 0.004370
v -1.223116 -0.052899 -0.108135
v -1.232966 -0.182605 -0.070649
v -1.189517 -0.059679 -0.176056
v -1.206117 -0.278276 -0.112879
v -1.075437 -0.068035 -0.174995
v -1.093216 -0.270445 0.142588
v -1.077072 -0.045592 0.177700
v -1.164307 -0.039202 0.176889
v -0.956002 -0.107783 0.088277
v -0.244990 -0.182410 0.021791
v -0.129223 -0.357160 -0.102868
v -0.015143 -0.365517 -0.101807
v 0.024574 -0.274721 -0.058958
v -0.969927 0.034653 0.110020
v -0.261043 -0.131411 0.077916
v -0.130403 -0.340972 0.151539
v -0.152640 -0.258623 0.027068
v -0.043167 -0.347362 0.152350
v -0.047702 -0.266310 0.028044
v -0.003003 -0.262707 0.098706
v 0.002049 -0.166539 0.021926
v -0.224992 0.080933 -0.054318
v -0.968954 0.021293 -0.099929
v -1.196418 -0.078749 0.010784
v -1.206853 -0.174523 0.087515
v -1.206853 -0.174523 0.087515
v 0.006576 -0.129290 0.119540
v -0.010147 -0.060805 0.015141
v -0.027023 -0.122510 0.187462
v -0.114258 -0.116120 0.186651
v -0.233825 -0.020613 0.095615
v -0.959542 0.171417 0.070495
v -0.937884 0.222902 -0.007212
v -1.055955 0.347390 -0.062107
v -0.958853 0.161970 -0.077962
v -1.034056 0.105154 -0.096201
v -0.130664 0.051087 0.103500
v -0.233825 -0.020613 0.095615
v -0.225541 0.088468 0.064089
v -0.073879 0.281304 0.039504
v -0.235498 0.131527 0.001858
v -0.073451 0.275420 -0.052973
v 0.005062 0.275522 0.040237
v 0.005491 0.269637 -0.052239
v -1.119099 0.111384 -0.096992
v -1.164538 0.087421 0.042708
v -1.197274 -0.041106 0.108348
v -1.164307 -0.039202 0.176889
v 0.006576 -0.129290 0.119540
vt 0.861100 0.914400
vt 0.979100 0.914400
vt 0.670500 1.016500
vt 0.861100 0.914400
vt 0.861100 0.887000
vt 0.861100 0.914400
vt 0.743200 0.887000
vt 0.743200 0.745400
vt 0.625200 0.745400
vt 0.743200 0.683500
vt 0.625200 0.683500
vt 0.625200 0.683500
vt 0.507300 0.683500
vt 0.507300 0.745400
vt 0.389300 0.745400
vt 0.507300 0.887000
vt 0.389300 0.887000
vt 0.507300 0.914400
vt 0.389300 1.002500
vt 0.743200 1.016500
vt 0.271400 0.914400
vt 0.153400 1.002500
vt 0.153400 0.887000
vt 0.035500 0.887000
vt 0.035500 0.745400
vt 0.153400 0.745400
vt 0.035500 0.745400
vt 0.035500 0.683500
vt 0.153400 0.887000
vt 0.232100 0.745400
vt 0.232100 0.887000
vt 0.310700 0.887000
vt 0.271400 0.914400
vt 0.389300 1.002500
vt 0.743200 1.016500
vt 0.507300 0.914400
vt 0.625200 0.914400
vt 0.507300 0.887000
vt 0.625200 0.887000
vt 0.507300 0.745400
vt 0.861100 0.745400
vt 0.979100 0.745400
vt 0.979100 0.887000
vt 0.861100 0.683500
vt 0.743200 0.683500
vt 0.625200 0.745400
vt 0.625200 0.887000
vt 0.625200 0.914400
vt 0.979100 0.683500
vt 0.861100 0.683500
vt 0.861100 0.745400
vt 0.743200 0.745400
vt 0.861100 0.887000
vt 0.743200 0.887000
vt 0.861100 0.914400
vt 0.743200 1.002500
vt 0.389300 0.683500
vt 0.507300 0.683500
vt 0.743200 1.002500
vt 0.861100 0.914400
vt 0.861100 0.914400
vt 0.979100 0.914400
vt 0.670500 1.016500
vt 0.979100 0.887000
vt 0.979100 0.745400
vt 0.979100 0.683500
vt 0.153400 0.683500
vt 0.271400 0.683500
vt 0.310700 0.745400
vt 0.389300 0.683500
vt 0.389300 0.745400
vt 0.153400 0.745400
vt 0.035500 0.683500
vt 0.153400 0.683500
vt 0.232100 0.745400
vt 0.271400 0.683500
vt 0.310700 0.745400
vt 0.232100 0.887000
vt 0.310700 0.887000
vt 0.389300 0.887000
vt 0.153400 1.002500
vt 0.035500 0.914400
vt 0.035500 0.887000
vt 0.035500 0.914400
vn -0.973934 0.101598 -0.202806
vn -0.973934 0.101598 -0.202806
vn -0.973934 0.101598 -0.202806
vn -0.901143 -0.002992 0.433511
vn -0.901144 -0.002992 0.433511
vn -0.901143 -0.002992 0.433511
vn -0.766504 -0.482751 -0.423584
vn -0.766504 -0.482751 -0.423584
vn -0.766504 -0.482751 -0.423584
vn -0.056275 -0.837273 -0.543881
vn -0.056275 -0.837273 -0.543882
vn -0.056275 -0.837273 -0.543882
vn -0.064189 -0.800686 0.595636
vn -0.064189 -0.800686 0.595636
vn -0.064189 -0.800686 0.595636
vn 0.277602 -0.812692 0.512317
vn 0.277602 -0.812692 0.512317
vn 0.277602 -0.812692 0.512317
vn 0.810095 -0.563756 -0.161015
vn 0.810095 -0.563756 -0.161015
vn 0.810095 -0.563756 -0.161015
vn -0.011213 -0.831806 -0.554954
vn -0.011213 -0.831805 -0.554954
vn -0.011213 -0.831805 -0.554954
vn 0.017745 -0.281998 -0.959251
vn 0.017745 -0.281998 -0.959251
vn 0.017745 -0.281998 -0.959251
vn -0.661362 -0.088308 -0.744851
vn -0.661361 -0.088308 -0.744851
vn -0.661362 -0.088308 -0.744851
vn -0.367949 0.345122 -0.863426
vn -0.367949 0.345122 -0.863426
vn -0.367949 0.345122 -0.863426
vn 0.038244 0.406228 -0.912971
vn 0.038244 0.406228 -0.912971
vn 0.038244 0.406227 -0.912971
vn 0.038244 0.406228 -0.912971
vn 0.038244 0.406228 -0.912971
vn 0.038244 0.406228 -0.912971
vn 0.825737 0.389502 -0.407979
vn 0.825737 0.389502 -0.407979
vn 0.825737 0.389502 -0.407979
vn 0.850840 0.397279 -0.343862
vn 0.850840 0.397279 -0.343862
vn 0.850840 0.397279 -0.343862
vn 0.951424 0.140647 0.273882
vn 0.951424 0.140647 0.273882
vn 0.951424 0.140647 0.273882
vn 0.957478 -0.222732 -0.183373
vn 0.957478 -0.222732 -0.183373
vn 0.957478 -0.222732 -0.183373
vn 0.955614 -0.197131 0.218955
vn 0.955614 -0.197131 0.218955
vn 0.955614 -0.197131 0.218955
vn 0.786777 -0.001907 0.617234
vn 0.786777 -0.001907 0.617234
vn 0.786777 -0.001907 0.617234
vn 0.856483 0.302882 0.417971
vn 0.856483 0.302882 0.417971
vn 0.856483 0.302882 0.417971
vn 0.024435 0.447062 0.894169
vn 0.024435 0.447062 0.894169
vn 0.024435 0.447062 0.894169
vn 0.276221 0.376861 0.884125
vn 0.276221 0.376861 0.884125
vn 0.276221 0.376861 0.884125
vn 0.024435 0.447063 0.894169
vn 0.024435 0.447063 0.894169
vn 0.024435 0.447063 0.894169
vn 0.010479 0.265410 0.964079
vn 0.010479 0.265410 0.964079
vn 0.010479 0.265410 0.964079
vn 0.010479 0.265410 0.964079
vn 0.010479 0.265410 0.964079
vn 0.010479 0.265410 0.964079
vn 0.073493 0.995304 -0.062992
vn 0.073493 0.995304 -0.062992
vn 0.073493 0.995304 -0.062992
vn -0.933778 0.356831 -0.027034
vn -0.933778 0.356831 -0.027034
vn -0.933778 0.356831 -0.027034
vn -0.783670 0.036074 -0.620129
vn -0.783670 0.036074 -0.620129
vn -0.783670 0.036074 -0.620129
vn -0.976157 -0.081090 -0.201349
vn -0.976157 -0.081090 -0.201349
vn -0.976157 -0.081090 -0.201349
vn -0.925676 0.278148 0.256432
vn -0.925676 0.278148 0.256432
vn -0.925676 0.278148 0.256432
vn -0.927829 0.166870 0.333598
vn -0.927829 0.166870 0.333598
vn -0.927829 0.166870 0.333598
vn -0.897104 -0.058443 -0.437937
vn -0.897104 -0.058443 -0.437937
vn -0.897104 -0.058443 -0.437937
vn -0.897102 -0.058445 -0.437941
vn -0.897102 -0.058445 -0.437941
vn -0.897102 -0.058445 -0.437941
vn -0.011346 -0.276834 -0.960851
vn -0.011346 -0.276834 -0.960851
vn -0.011346 -0.276834 -0.960851
vn -0.020380 -0.152823 0.988043
vn -0.020380 -0.152823 0.988043
vn -0.020380 -0.152823 0.988043
vn 0.528430 -0.167893 0.832210
vn 0.528430 -0.167893 0.832210
vn 0.528430 -0.167893 0.832210
vn 0.780818 -0.592631 0.197766
vn 0.780818 -0.592631 0.197766
vn 0.780818 -0.592631 0.197766
vn -0.018378 -0.757000 0.653156
vn -0.018378 -0.757000 0.653156
vn -0.018378 -0.757000 0.653156
vn -0.012507 -0.823519 -0.567150
vn -0.012507 -0.823519 -0.567150
vn -0.012507 -0.823519 -0.567150
vn -0.874711 -0.448552 -0.183525
vn -0.874711 -0.448552 -0.183524
vn -0.874711 -0.448552 -0.183525
vn -0.654757 -0.163549 -0.737933
vn -0.654757 -0.163549 -0.737933
vn -0.654757 -0.163549 -0.737933
vn -0.011346 -0.276834 -0.960851
vn -0.011346 -0.276834 -0.960851
vn -0.011346 -0.276834 -0.960851
vn -0.011346 -0.276834 -0.960851
vn -0.011346 -0.276834 -0.960851
vn -0.011346 -0.276834 -0.960851
vn 0.886956 -0.189130 -0.421355
vn 0.886955 -0.189130 -0.421355
vn 0.886955 -0.189130 -0.421355
vn 0.886957 -0.189128 -0.421352
vn 0.886957 -0.189128 -0.421352
vn 0.886957 -0.189128 -0.421352
vn 0.935912 0.030348 0.350924
vn 0.935912 0.030348 0.350924
vn 0.935912 0.030348 0.350924
vn 0.569381 -0.069379 0.819141
vn 0.569381 -0.069379 0.819141
vn 0.569381 -0.069379 0.819141
vn 0.009641 -0.149976 0.988643
vn 0.009641 -0.149976 0.988643
vn 0.009641 -0.149976 0.988643
vn -0.015243 -0.742171 0.670037
vn -0.015243 -0.742171 0.670037
vn -0.015243 -0.742171 0.670037
vn -0.861852 -0.472909 0.183217
vn -0.861852 -0.472909 0.183217
vn -0.861852 -0.472909 0.183217
vn -0.576748 -0.724947 -0.376581
vn -0.576748 -0.724947 -0.376581
vn -0.576748 -0.724947 -0.376581
vn -0.056275 -0.837273 -0.543882
vn -0.056275 -0.837273 -0.543882
vn -0.056275 -0.837273 -0.543882
vn -0.056275 -0.837273 -0.543882
vn -0.056275 -0.837273 -0.543881
vn -0.056275 -0.837273 -0.543882
vn 0.695683 -0.589858 -0.409990
vn 0.695683 -0.589858 -0.409990
vn 0.695683 -0.589858 -0.409990
vn 0.777705 -0.416667 -0.470706
vn 0.777705 -0.416667 -0.470706
vn 0.777705 -0.416667 -0.470706
vn 0.967108 0.125735 0.221115
vn 0.967108 0.125735 0.221115
vn 0.967108 0.125735 0.221115
vn 0.986221 0.120991 0.112827
vn 0.986221 0.120991 0.112827
vn 0.986221 0.120991 0.112827
vn -0.260536 0.167187 -0.950878
vn -0.260536 0.167187 -0.950878
vn -0.260536 0.167187 -0.950878
vn 0.048454 0.150703 -0.987391
vn 0.048454 0.150703 -0.987391
vn 0.048454 0.150703 -0.987391
vn 0.016989 -0.275775 -0.961072
vn 0.016989 -0.275775 -0.961072
vn 0.016989 -0.275775 -0.961072
vn 0.664062 -0.182235 -0.725129
vn 0.664062 -0.182235 -0.725129
vn 0.664062 -0.182235 -0.725129
vn 0.634318 -0.258712 -0.728497
vn 0.634318 -0.258712 -0.728497
vn 0.634318 -0.258712 -0.728497
vn -0.011346 -0.276834 -0.960851
vn -0.011346 -0.276834 -0.960851
vn -0.011346 -0.276834 -0.960851
vn -0.064189 -0.800685 0.595636
vn -0.064189 -0.800685 0.595636
vn -0.064189 -0.800686 0.595636
vn -0.850057 -0.246991 0.465186
vn -0.850057 -0.246991 0.465186
vn -0.850057 -0.246991 0.465186
vn -0.821278 -0.299539 -0.485571
vn -0.821278 -0.299539 -0.485571
vn -0.821278 -0.299539 -0.485571
vn -0.942388 0.265608 0.203363
vn -0.942388 0.265608 0.203363
vn -0.942388 0.265608 0.203363
vn 0.981925 -0.041672 -0.184624
vn 0.981925 -0.041672 -0.184624
vn 0.981925 -0.041672 -0.184624
vn 0.882917 -0.133677 0.450097
vn 0.882917 -0.133678 0.450098
vn 0.882917 -0.133677 0.450098
vn 0.882918 -0.133678 0.450096
vn 0.882918 -0.133678 0.450096
vn 0.882918 -0.133678 0.450096
vn -0.020380 -0.152823 0.988043
vn -0.020380 -0.152823 0.988043
vn -0.020380 -0.152823 0.988043
vn -0.020380 -0.152823 0.988043
vn -0.020380 -0.152823 0.988043
vn -0.020380 -0.152823 0.988043
vn -0.587537 -0.083499 0.804878
vn -0.587537 -0.083499 0.804878
vn -0.587537 -0.083499 0.804878
vn -0.596378 0.018313 0.802495
vn -0.596378 0.018313 0.802495
vn -0.596378 0.018313 0.802495
vn 0.007344 -0.159497 0.987171
vn 0.007344 -0.159497 0.987171
vn 0.007344 -0.159497 0.987171
vn 0.120236 0.267192 0.956113
vn 0.120236 0.267192 0.956113
vn 0.120236 0.267192 0.956113
vn 0.116070 0.272547 0.955116
vn 0.116070 0.272547 0.955116
vn 0.116070 0.272547 0.955116
vn 0.701671 0.488162 0.518995
vn 0.701671 0.488162 0.518995
vn 0.701671 0.488162 0.518995
vn 0.733683 0.678328 -0.039762
vn 0.733683 0.678328 -0.039762
vn 0.733683 0.678328 -0.039762
vn 0.706719 0.418855 -0.570184
vn 0.706719 0.418855 -0.570184
vn 0.706719 0.418855 -0.570184
vn 0.125045 0.149356 -0.980845
vn 0.125045 0.149356 -0.980845
vn 0.125045 0.149356 -0.980845
vn 0.129213 0.143926 -0.981116
vn 0.129213 0.143926 -0.981116
vn 0.129213 0.143926 -0.981116
vn 0.355740 0.315276 -0.879801
vn 0.355740 0.315276 -0.879801
vn 0.355740 0.315276 -0.879801
vn -0.338023 0.392266 0.855493
vn -0.338023 0.392266 0.855493
vn -0.338023 0.392266 0.855493
vn -0.269209 0.286212 0.919570
vn -0.269209 0.286212 0.919570
vn -0.269209 0.286212 0.919570
vn -0.254700 0.316801 0.913655
vn -0.254700 0.316802 0.913655
vn -0.254700 0.316802 0.913655
vn -0.648260 0.573674 0.500657
vn -0.648260 0.573674 0.500657
vn -0.648260 0.573674 0.500657
vn -0.672572 0.738334 -0.050099
vn -0.672571 0.738334 -0.050099
vn -0.672572 0.738334 -0.050099
vn -0.643272 0.505209 -0.575295
vn -0.643273 0.505209 -0.575295
vn -0.643272 0.505209 -0.575295
vn -0.246063 0.198291 -0.948754
vn -0.246063 0.198291 -0.948754
vn -0.246063 0.198291 -0.948754
vn 0.048454 0.150704 -0.987391
vn 0.048454 0.150704 -0.987391
vn 0.048454 0.150704 -0.987391
vn 0.103765 0.748628 -0.654819
vn 0.103765 0.748628 -0.654819
vn 0.103765 0.748628 -0.654819
vn 0.104620 0.738027 -0.666611
vn 0.104620 0.738027 -0.666611
vn 0.104620 0.738027 -0.666611
vn 0.100238 0.825630 0.555236
vn 0.100238 0.825630 0.555236
vn 0.100238 0.825630 0.555236
vn 0.097287 0.816975 0.568407
vn 0.097287 0.816975 0.568407
vn 0.097287 0.816975 0.568407
vn 0.039425 0.274670 0.960730
vn 0.039425 0.274670 0.960730
vn 0.039425 0.274670 0.960730
vn 0.039423 0.274663 0.960732
vn 0.039423 0.274663 0.960732
vn 0.039423 0.274663 0.960732
vn 0.024435 0.447063 0.894169
vn 0.024435 0.447063 0.894169
vn 0.024435 0.447063 0.894169
vn 0.010479 0.265410 0.964079
vn 0.010479 0.265410 0.964079
vn 0.010479 0.265410 0.964079
vn 0.010479 0.265410 0.964079
vn 0.010479 0.265410 0.964079
vn 0.010479 0.265410 0.964079
vn 0.073493 0.995304 -0.062992
vn 0.073493 0.995304 -0.062992
vn 0.073493 0.995304 -0.062992
vn 0.976144 0.216926 -0.009278
vn 0.976144 0.216926 -0.009278
vn 0.976144 0.216926 -0.009278
vn 0.791895 -0.079338 -0.605482
vn 0.791895 -0.079338 -0.605482
vn 0.791895 -0.079338 -0.605482
vn -0.592818 -0.689530 0.416071
vn -0.592818 -0.689530 0.416071
vn -0.592818 -0.689530 0.416071
vn -0.064189 -0.800686 0.595636
vn -0.064189 -0.800686 0.595636
vn -0.064189 -0.800686 0.595636
vn -0.064189 -0.800685 0.595636
vn -0.064189 -0.800685 0.595636
vn -0.064189 -0.800686 0.595636
vn 0.796247 -0.367585 0.480492
vn 0.796247 -0.367585 0.480492
vn 0.796247 -0.367585 0.480492
vn 0.335913 -0.518144 0.786568
vn 0.335913 -0.518144 0.786568
vn 0.335913 -0.518144 0.786568
vn 0.073493 0.995304 -0.062992
vn 0.073493 0.995304 -0.062992
vn 0.073493 0.995304 -0.062992
vn 0.019536 0.141079 -0.989806
vn 0.019536 0.141079 -0.989806
vn 0.019536 0.141079 -0.989806
vn 0.019536 0.141079 -0.989806
vn 0.019536 0.141079 -0.989806
vn 0.019536 0.141079 -0.989806
vn 0.038244 0.406228 -0.912971
vn 0.038244 0.406228 -0.912971
vn 0.038244 0.406228 -0.912971
vn 0.038244 0.406228 -0.912971
vn 0.038244 0.406227 -0.912971
vn 0.038244 0.406228 -0.912971
vn -0.901144 -0.002992 0.433510
vn -0.901144 -0.002992 0.433510
vn -0.901144 -0.002992 0.433510
vn -0.020380 -0.152823 0.988043
vn -0.020380 -0.152823 0.988043
vn -0.020380 -0.152823 0.988043
vn -0.056275 -0.837273 -0.543882
vn -0.056275 -0.837273 -0.543882
vn -0.056275 -0.837273 -0.543882
vn 0.273403 -0.847982 -0.454067
vn 0.273403 -0.847982 -0.454067
vn 0.273403 -0.847982 -0.454067
vn -0.789594 0.114127 0.602924
vn -0.789594 0.114127 0.602924
vn -0.789594 0.114127 0.602924
vn -0.789936 0.113590 0.602576
vn -0.789936 0.113590 0.602576
vn -0.789936 0.113590 0.602576
vn -0.978023 -0.055490 0.200979
vn -0.978023 -0.055490 0.200979
vn -0.978023 -0.055490 0.200979
vn -0.972806 0.164480 -0.163081
vn -0.972806 0.164480 -0.163081
vn -0.972806 0.164480 -0.163081
vn -0.784360 0.036217 -0.619248
vn -0.784360 0.036217 -0.619248
vn -0.784360 0.036217 -0.619248
vn -0.777366 0.516547 -0.358999
vn -0.777366 0.516547 -0.358999
vn -0.777366 0.516547 -0.358999
vn -0.752483 0.505109 -0.422651
vn -0.752483 0.505109 -0.422651
vn -0.752483 0.505109 -0.422651
vn 0.073493 0.995304 -0.062992
vn 0.073493 0.995304 -0.062992
vn 0.073493 0.995304 -0.062992
vn 0.019536 0.141079 -0.989806
vn 0.019536 0.141079 -0.989806
vn 0.019536 0.141079 -0.989806
vn 0.792581 -0.079296 -0.604588
vn 0.792581 -0.079296 -0.604588
vn 0.792581 -0.079296 -0.604589
vn -0.959982 0.263553 0.094734
vn -0.959982 0.263553 0.094734
vn -0.959982 0.263553 0.094734
vn -0.422314 -0.462602 0.779519
vn -0.422314 -0.462602 0.779519
vn -0.422314 -0.462602 0.779519
vn 0.024435 0.447062 0.894169
vn 0.024435 0.447062 0.894169
vn 0.024435 0.447062 0.894169
vn -0.810791 0.425012 0.402471
vn -0.810791 0.425012 0.402471
vn -0.810791 0.425012 0.402471
vn 0.989237 0.020758 -0.144842
vn 0.989237 0.020758 -0.144842
vn 0.989237 0.020758 -0.144842
vn 0.870456 0.283698 0.402271
vn 0.870456 0.283698 0.402271
vn 0.870456 0.283698 0.402271
vn -0.827117 0.408048 0.386489
vn -0.827117 0.408048 0.386489
vn -0.827117 0.408048 0.386489
vn 0.019536 0.141079 -0.989806
vn 0.019536 0.141079 -0.989806
vn 0.019536 0.141079 -0.989806
vn 0.786510 -0.001325 0.617576
vn 0.786510 -0.001325 0.617576
vn 0.786510 -0.001325 0.617576
s off
g Object_BoneSS00_jpg
usemtl mat_0_BoneSS00_jpg
f 1/1/1 2/2/2 3/3/3
f 2/2/4 4/4/5 5/5/6
f 5/5/7 6/6/8 7/7/9
f 5/5/10 7/7/11 8/8/12
f 9/9/13 8/8/14 7/7/15
f 8/8/16 9/9/17 10/10/18
f 11/11/19 10/10/20 9/9/21
f 10/10/22 11/11/23 12/12/24
f 13/13/25 12/12/26 11/11/27
f 12/12/28 13/13/29 14/14/30
f 15/15/31 14/14/32 13/13/33
f 14/14/34 15/15/35 16/16/36
f 17/17/37 16/16/38 15/15/39
f 16/16/40 17/17/41 18/18/42
f 19/19/43 18/18/44 17/17/45
f 18/18/46 19/19/47 20/20/48
f 21/21/49 20/20/50 19/19/51
f 20/20/52 21/21/53 22/22/54
f 23/23/55 22/22/56 21/21/57
f 22/22/58 23/23/59 24/24/60
f 25/25/61 24/24/62 23/23/63
f 26/26/64 27/27/65 28/28/66
f 27/27/67 26/26/68 29/29/69
f 30/30/70 29/29/71 26/26/72
f 29/29/73 30/30/74 31/31/75
f 32/32/76 31/31/77 30/30/78
f 31/31/79 32/32/80 33/33/81
f 34/34/82 33/33/83 32/32/84
f 33/33/85 34/34/86 35/35/87
f 36/36/88 35/35/89 34/34/90
f 35/35/91 36/36/92 37/37/93
f 38/38/94 37/37/95 36/36/96
f 37/37/97 38/38/98 39/39/99
f 40/40/100 39/39/101 38/38/102
f 41/41/103 42/42/104 43/43/105
f 42/42/106 41/41/107 44/44/108
f 10/10/109 44/44/110 41/41/111
f 44/44/112 10/10/113 45/45/114
f 12/12/115 45/45/116 10/10/117
f 45/45/118 12/12/119 46/46/120
f 14/14/121 46/46/122 12/12/123
f 46/46/124 14/14/125 47/47/126
f 16/16/127 47/47/128 14/14/129
f 47/47/130 16/16/131 48/48/132
f 18/18/133 48/48/134 16/16/135
f 48/48/136 18/18/137 20/20/138
f 44/44/139 49/49/140 42/42/141
f 49/49/142 44/44/143 50/50/144
f 45/45/145 50/50/146 44/44/147
f 50/50/148 45/45/149 51/51/150
f 52/52/151 51/51/152 45/45/153
f 51/51/154 52/52/155 53/53/156
f 54/54/157 53/53/158 52/52/159
f 53/53/160 54/54/161 55/55/162
f 56/56/163 55/55/164 54/54/165
f 55/55/166 56/56/167 20/20/168
f 48/48/169 20/20/170 56/56/171
f 13/13/172 57/57/173 15/15/174
f 57/57/175 13/13/176 58/58/177
f 11/11/178 58/58/179 13/13/180
f 58/58/181 11/11/182 40/40/183
f 9/9/184 40/40/185 11/11/186
f 40/40/187 9/9/188 39/39/189
f 7/7/190 39/39/191 9/9/192
f 39/39/193 7/7/194 59/59/195
f 60/60/196 59/59/197 7/7/198
f 59/59/199 61/61/200 35/35/201
f 62/62/202 55/55/203 63/63/204
f 55/55/205 62/62/206 53/53/207
f 64/64/208 53/53/209 62/62/210
f 53/53/211 64/64/212 51/51/213
f 65/65/214 51/51/215 64/64/216
f 51/51/217 65/65/218 50/50/219
f 66/66/220 50/50/221 65/65/222
f 50/50/223 66/66/224 49/49/225
f 67/67/226 26/26/227 28/28/228
f 26/26/229 67/67/230 30/30/231
f 68/68/232 30/30/233 67/67/234
f 30/30/235 68/68/236 69/69/237
f 70/70/238 69/69/239 68/68/240
f 69/69/241 70/70/242 71/71/243
f 58/58/244 71/71/245 70/70/246
f 71/71/247 58/58/248 40/40/249
f 72/72/250 73/73/251 25/25/252
f 73/73/253 72/72/254 74/74/255
f 75/75/256 74/74/257 72/72/258
f 74/74/259 75/75/260 76/76/261
f 77/77/262 76/76/263 75/75/264
f 76/76/265 77/77/266 57/57/267
f 15/15/268 57/57/269 77/77/270
f 70/70/271 57/57/272 58/58/273
f 57/57/274 70/70/275 76/76/276
f 68/68/277 76/76/278 70/70/279
f 76/76/280 68/68/281 74/74/282
f 67/67/283 74/74/284 68/68/285
f 74/74/286 67/67/287 73/73/288
f 28/28/289 73/73/290 67/67/291
f 23/23/292 72/72/293 25/25/294
f 72/72/295 23/23/296 75/75/297
f 78/78/298 75/75/299 23/23/300
f 75/75/301 78/78/302 79/79/303
f 21/21/304 79/79/305 78/78/306
f 79/79/307 21/21/308 19/19/309
f 46/46/310 52/52/311 45/45/312
f 52/52/313 46/46/314 54/54/315
f 47/47/316 54/54/317 46/46/318
f 54/54/319 47/47/320 56/56/321
f 48/48/322 56/56/323 47/47/324
f 69/69/325 32/32/326 30/30/327
f 32/32/328 69/69/329 80/80/330
f 71/71/331 80/80/332 69/69/333
f 80/80/334 71/71/335 38/38/336
f 40/40/337 38/38/338 71/71/339
f 5/5/340 43/43/341 2/2/342
f 43/43/343 5/5/344 41/41/345
f 8/8/346 41/41/347 5/5/348
f 41/41/349 8/8/350 10/10/351
f 33/33/352 29/29/353 31/31/354
f 29/29/355 33/33/356 81/81/357
f 35/35/358 81/81/359 33/33/360
f 81/81/361 35/35/362 82/82/363
f 80/80/364 34/34/365 32/32/366
f 34/34/367 80/80/368 36/36/369
f 38/38/370 36/36/371 80/80/372
f 79/79/373 77/77/374 75/75/375
f 77/77/376 79/79/377 17/17/378
f 19/19/379 17/17/380 79/79/381
f 37/37/382 59/59/383 35/35/384
f 59/59/385 37/37/386 39/39/387
f 29/29/388 83/83/389 27/27/390
f 83/83/391 29/29/392 81/81/393
f 22/22/394 84/84/395 20/20/396
f 84/84/397 22/22/398 24/24/399
f 81/81/400 82/82/401 83/83/402
f 17/17/403 15/15/404 77/77/405
f 21/21/406 78/78/407 23/23/408
