# This file uses centimeters as units for non-parametric coordinates.

mtllib long.mtl
g default
v -1.413022 -0.009195 0.057580
v -1.409743 0.038054 0.077162
v -1.374302 0.056218 -0.000902
v -1.413022 -0.009195 0.057580
v -1.366586 -0.041813 0.097221
v -1.413022 -0.009195 0.057580
v -1.346905 -0.018317 0.003968
v -1.192641 -0.029617 0.005402
v -1.237437 -0.063688 -0.097738
v -1.087772 -0.027017 0.005723
v -1.062717 -0.012355 -0.052558
v -0.021996 -0.078024 -0.031924
v -0.000470 -0.042057 -0.053097
v 0.183817 -0.092558 -0.127357
v 0.144836 -0.025943 -0.062677
v 0.351520 -0.104843 -0.125798
v 0.269853 -0.035101 -0.061514
v 0.400203 -0.105079 -0.072737
v 0.330712 -0.049492 -0.018923
v 0.329001 -0.068551 0.014933
v 0.377679 -0.000524 0.010830
v 0.330410 -0.045354 0.046116
v 0.269169 -0.025716 0.085975
v 0.310796 -0.084649 0.145767
v 0.182557 -0.075255 0.144574
v -1.185175 0.080817 0.072455
v -1.232820 0.028424 0.131416
v -1.083102 0.046456 0.082335
v -1.310192 0.089975 0.071293
v -1.236421 0.164874 0.028619
v -1.352469 0.173375 0.027540
v -1.352138 0.168838 -0.043761
v -1.412464 0.130607 -0.005812
v -1.372591 0.075277 -0.034758
v -1.374302 0.056218 -0.000902
v -1.448433 0.030336 -0.089923
v -1.451921 -0.014052 -0.064540
v -1.399263 0.023405 -0.142074
v -1.405140 -0.051403 -0.099297
v -1.231560 0.011120 -0.140515
v -1.238346 -0.051206 0.098413
v -1.232820 0.028424 0.131416
v -1.361060 0.037817 0.130224
v -1.051241 -0.005951 0.062016
v -0.004793 -0.092442 0.014906
v 0.177940 -0.167366 -0.084579
v 0.345643 -0.179651 -0.083020
v 0.396716 -0.149467 -0.047354
v -1.083102 0.046456 0.082335
v -0.031996 -0.071514 0.059281
v 0.177030 -0.154885 0.111571
v 0.136687 -0.126992 0.017760
v 0.305270 -0.164279 0.112763
v 0.290950 -0.138292 0.019194
v 0.356688 -0.138829 0.074032
v 0.355566 -0.107010 0.017503
v 0.002288 -0.002322 -0.036628
v -1.082351 0.036155 -0.079538
v -1.406230 0.022045 0.001125
v -1.413022 -0.009195 0.057580
v -1.413022 -0.009195 0.057580
v 0.359967 -0.091580 0.093615
v 0.329001 -0.068551 0.014933
v 0.310796 -0.084649 0.145767
v 0.182557 -0.075255 0.144574
v -0.001069 -0.033842 0.076012
v -1.079425 0.093259 0.055572
v -1.052588 0.107790 -0.002692
v -1.236091 0.160337 -0.042682
v -1.078894 0.085975 -0.058890
v -1.184491 0.071432 -0.075035
v 0.144153 -0.016558 0.084813
v -0.001069 -0.033842 0.076012
v 0.001864 0.003488 0.054665
v 0.207902 0.059075 0.042046
v -0.016760 0.018010 0.007822
v 0.208232 0.054538 -0.029255
v 0.323949 0.050575 0.043125
v 0.324279 0.046038 -0.028176
v -1.309508 0.080590 -0.076197
v -1.372892 0.079416 0.030281
v -1.409743 0.038054 0.077162
v -1.361060 0.037817 0.130224
v 0.359967 -0.091580 0.093615
vt 0.861100 0.914400
vt 0.979100 0.914400
vt 0.670500 1.016500
vt 0.861100 0.914400
vt 0.861100 0.887000
vt 0.861100 0.914400
vt 0.743200 0.887000
vt 0.743200 0.745400
vt 0.625200 0.745400
vt 0.743200 0.683500
vt 0.625200 0.683500
vt 0.625200 0.683500
vt 0.507300 0.683500
vt 0.507300 0.745400
vt 0.389300 0.745400
vt 0.507300 0.887000
vt 0.389300 0.887000
vt 0.507300 0.914400
vt 0.389300 1.002500
vt 0.743200 1.016500
vt 0.271400 0.914400
vt 0.153400 1.002500
vt 0.153400 0.887000
vt 0.035500 0.887000
vt 0.035500 0.745400
vt 0.153400 0.745400
vt 0.035500 0.745400
vt 0.035500 0.683500
vt 0.153400 0.887000
vt 0.232100 0.745400
vt 0.232100 0.887000
vt 0.310700 0.887000
vt 0.271400 0.914400
vt 0.389300 1.002500
vt 0.743200 1.016500
vt 0.507300 0.914400
vt 0.625200 0.914400
vt 0.507300 0.887000
vt 0.625200 0.887000
vt 0.507300 0.745400
vt 0.861100 0.745400
vt 0.979100 0.745400
vt 0.979100 0.887000
vt 0.861100 0.683500
vt 0.743200 0.683500
vt 0.625200 0.745400
vt 0.625200 0.887000
vt 0.625200 0.914400
vt 0.979100 0.683500
vt 0.861100 0.683500
vt 0.861100 0.745400
vt 0.743200 0.745400
vt 0.861100 0.887000
vt 0.743200 0.887000
vt 0.861100 0.914400
vt 0.743200 1.002500
vt 0.389300 0.683500
vt 0.507300 0.683500
vt 0.743200 1.002500
vt 0.861100 0.914400
vt 0.861100 0.914400
vt 0.979100 0.914400
vt 0.670500 1.016500
vt 0.979100 0.887000
vt 0.979100 0.745400
vt 0.979100 0.683500
vt 0.153400 0.683500
vt 0.271400 0.683500
vt 0.310700 0.745400
vt 0.389300 0.683500
vt 0.389300 0.745400
vt 0.153400 0.745400
vt 0.035500 0.683500
vt 0.153400 0.683500
vt 0.232100 0.745400
vt 0.271400 0.683500
vt 0.310700 0.745400
vt 0.232100 0.887000
vt 0.310700 0.887000
vt 0.389300 0.887000
vt 0.153400 1.002500
vt 0.035500 0.914400
vt 0.035500 0.887000
vt 0.035500 0.914400
vn -0.907348 0.213145 -0.362337
vn -0.907348 0.213145 -0.362337
vn -0.907348 0.213145 -0.362337
vn -0.718791 -0.223033 0.658480
vn -0.718791 -0.223033 0.658480
vn -0.718791 -0.223033 0.658480
vn -0.364205 -0.881986 -0.299092
vn -0.364205 -0.881986 -0.299092
vn -0.364205 -0.881986 -0.299092
vn -0.068218 -0.963929 -0.257268
vn -0.068218 -0.963929 -0.257268
vn -0.068218 -0.963929 -0.257268
vn -0.071833 -0.937370 0.340847
vn -0.071833 -0.937370 0.340847
vn -0.071833 -0.937370 0.340847
vn 0.022676 -0.952181 0.304693
vn 0.022676 -0.952181 0.304693
vn 0.022676 -0.952181 0.304693
vn 0.305572 -0.946175 -0.106672
vn 0.305572 -0.946175 -0.106672
vn 0.305572 -0.946175 -0.106672
vn -0.055454 -0.962390 -0.265953
vn -0.055454 -0.962390 -0.265953
vn -0.055454 -0.962390 -0.265953
vn -0.014443 -0.500818 -0.865432
vn -0.014443 -0.500818 -0.865432
vn -0.014443 -0.500818 -0.865432
vn -0.421282 -0.259449 -0.869027
vn -0.421282 -0.259449 -0.869027
vn -0.421282 -0.259449 -0.869027
vn -0.121742 0.653845 -0.746771
vn -0.121742 0.653845 -0.746771
vn -0.121742 0.653845 -0.746770
vn 0.058717 0.712884 -0.698819
vn 0.058717 0.712884 -0.698820
vn 0.058717 0.712884 -0.698820
vn 0.058717 0.712884 -0.698819
vn 0.058717 0.712884 -0.698819
vn 0.058717 0.712884 -0.698819
vn 0.413126 0.829728 -0.375337
vn 0.413126 0.829728 -0.375337
vn 0.413126 0.829728 -0.375337
vn 0.425907 0.845144 -0.323009
vn 0.425907 0.845144 -0.323009
vn 0.425907 0.845144 -0.323009
vn 0.736636 0.572738 0.359637
vn 0.736636 0.572738 0.359637
vn 0.736636 0.572738 0.359637
vn 0.772212 -0.569554 -0.281596
vn 0.772212 -0.569554 -0.281596
vn 0.772212 -0.569554 -0.281597
vn 0.769245 -0.528816 0.358629
vn 0.769245 -0.528816 0.358630
vn 0.769245 -0.528816 0.358630
vn 0.558402 0.062328 0.827226
vn 0.558402 0.062328 0.827226
vn 0.558402 0.062328 0.827226
vn 0.505810 0.763894 0.400777
vn 0.505810 0.763894 0.400777
vn 0.505810 0.763894 0.400777
vn 0.046932 0.727559 0.684438
vn 0.046932 0.727559 0.684438
vn 0.046932 0.727559 0.684438
vn 0.156257 0.672258 0.723639
vn 0.156257 0.672258 0.723639
vn 0.156257 0.672258 0.723639
vn 0.046932 0.727560 0.684437
vn 0.046932 0.727560 0.684437
vn 0.046932 0.727560 0.684437
vn 0.026613 0.474946 0.879613
vn 0.026613 0.474946 0.879613
vn 0.026613 0.474946 0.879613
vn 0.026613 0.474946 0.879612
vn 0.026613 0.474946 0.879612
vn 0.026613 0.474946 0.879612
vn 0.073493 0.995304 -0.062992
vn 0.073493 0.995304 -0.062992
vn 0.073493 0.995304 -0.062992
vn -0.559041 0.827298 -0.055234
vn -0.559041 0.827298 -0.055234
vn -0.559041 0.827298 -0.055234
vn -0.550074 0.039987 -0.834158
vn -0.550074 0.039987 -0.834158
vn -0.550074 0.039987 -0.834158
vn -0.841619 -0.451339 -0.296600
vn -0.841619 -0.451339 -0.296600
vn -0.841619 -0.451339 -0.296600
vn -0.651844 0.674446 0.346729
vn -0.651844 0.674446 0.346729
vn -0.651844 0.674446 0.346729
vn -0.765052 0.363913 0.531284
vn -0.765052 0.363913 0.531284
vn -0.765052 0.363913 0.531284
vn -0.712812 -0.305113 -0.631510
vn -0.712812 -0.305113 -0.631510
vn -0.712812 -0.305113 -0.631510
vn -0.712808 -0.305117 -0.631513
vn -0.712808 -0.305117 -0.631513
vn -0.712808 -0.305117 -0.631513
vn -0.028150 -0.494541 -0.868699
vn -0.028150 -0.494541 -0.868699
vn -0.028150 -0.494541 -0.868698
vn -0.036460 -0.380463 0.924077
vn -0.036460 -0.380463 0.924077
vn -0.036460 -0.380463 0.924077
vn 0.265060 -0.384824 0.884112
vn 0.265060 -0.384824 0.884112
vn 0.265060 -0.384824 0.884112
vn 0.264563 -0.946911 0.182664
vn 0.264564 -0.946911 0.182664
vn 0.264564 -0.946911 0.182664
vn -0.058937 -0.921785 0.383195
vn -0.058937 -0.921785 0.383195
vn -0.058937 -0.921785 0.383195
vn -0.055652 -0.959814 -0.275064
vn -0.055652 -0.959814 -0.275064
vn -0.055652 -0.959814 -0.275064
vn -0.430740 -0.894825 -0.117268
vn -0.430740 -0.894825 -0.117268
vn -0.430740 -0.894825 -0.117268
vn -0.404636 -0.429787 -0.807188
vn -0.404636 -0.429787 -0.807188
vn -0.404636 -0.429787 -0.807188
vn -0.028150 -0.494541 -0.868698
vn -0.028150 -0.494541 -0.868698
vn -0.028150 -0.494541 -0.868698
vn -0.028150 -0.494541 -0.868698
vn -0.028150 -0.494541 -0.868699
vn -0.028150 -0.494541 -0.868699
vn 0.672298 -0.406578 -0.618636
vn 0.672298 -0.406578 -0.618636
vn 0.672298 -0.406578 -0.618636
vn 0.672302 -0.406574 -0.618634
vn 0.672302 -0.406574 -0.618634
vn 0.672302 -0.406574 -0.618634
vn 0.799955 0.249274 0.545834
vn 0.799955 0.249274 0.545834
vn 0.799955 0.249274 0.545834
vn 0.325046 -0.163536 0.931451
vn 0.325046 -0.163536 0.931451
vn 0.325046 -0.163536 0.931451
vn -0.021488 -0.372753 0.927682
vn -0.021488 -0.372753 0.927682
vn -0.021488 -0.372753 0.927682
vn -0.057867 -0.916158 0.396618
vn -0.057867 -0.916158 0.396618
vn -0.057867 -0.916158 0.396618
vn -0.402489 -0.898174 0.176875
vn -0.402489 -0.898174 0.176875
vn -0.402489 -0.898174 0.176875
vn -0.229591 -0.955474 -0.185355
vn -0.229591 -0.955474 -0.185355
vn -0.229591 -0.955474 -0.185355
vn -0.068218 -0.963929 -0.257269
vn -0.068218 -0.963929 -0.257269
vn -0.068218 -0.963929 -0.257269
vn -0.068218 -0.963929 -0.257268
vn -0.068218 -0.963929 -0.257268
vn -0.068218 -0.963929 -0.257268
vn 0.237273 -0.926045 -0.293500
vn 0.237273 -0.926045 -0.293500
vn 0.237273 -0.926045 -0.293500
vn 0.377138 -0.803862 -0.459971
vn 0.377138 -0.803862 -0.459971
vn 0.377138 -0.803861 -0.459971
vn 0.776107 0.555986 0.297552
vn 0.776107 0.555986 0.297552
vn 0.776107 0.555986 0.297552
vn 0.810068 0.569013 0.141472
vn 0.810068 0.569013 0.141472
vn 0.810068 0.569013 0.141471
vn -0.103320 0.386937 -0.916299
vn -0.103320 0.386937 -0.916300
vn -0.103320 0.386937 -0.916300
vn 0.050010 0.379433 -0.923867
vn 0.050010 0.379433 -0.923867
vn 0.050010 0.379433 -0.923867
vn -0.014154 -0.490378 -0.871395
vn -0.014154 -0.490378 -0.871395
vn -0.014154 -0.490378 -0.871395
vn 0.403845 -0.314367 -0.859117
vn 0.403845 -0.314367 -0.859117
vn 0.403845 -0.314367 -0.859117
vn 0.349830 -0.485600 -0.801131
vn 0.349830 -0.485600 -0.801131
vn 0.349830 -0.485600 -0.801131
vn -0.028150 -0.494541 -0.868698
vn -0.028150 -0.494541 -0.868698
vn -0.028150 -0.494541 -0.868698
vn -0.071833 -0.937370 0.340848
vn -0.071833 -0.937370 0.340848
vn -0.071833 -0.937370 0.340848
vn -0.501242 -0.701016 0.507280
vn -0.501241 -0.701016 0.507280
vn -0.501241 -0.701016 0.507280
vn -0.481672 -0.740952 -0.467955
vn -0.481671 -0.740952 -0.467955
vn -0.481672 -0.740952 -0.467955
vn -0.692181 0.663540 0.283901
vn -0.692181 0.663540 0.283901
vn -0.692181 0.663540 0.283901
vn 0.935265 0.078171 -0.345208
vn 0.935265 0.078171 -0.345208
vn 0.935265 0.078171 -0.345208
vn 0.666320 -0.324494 0.671358
vn 0.666320 -0.324494 0.671358
vn 0.666320 -0.324494 0.671358
vn 0.666322 -0.324494 0.671356
vn 0.666322 -0.324494 0.671356
vn 0.666322 -0.324494 0.671356
vn -0.036460 -0.380463 0.924077
vn -0.036460 -0.380463 0.924077
vn -0.036460 -0.380463 0.924077
vn -0.036460 -0.380463 0.924077
vn -0.036460 -0.380463 0.924077
vn -0.036460 -0.380463 0.924077
vn -0.352852 -0.337249 0.872788
vn -0.352852 -0.337249 0.872788
vn -0.352852 -0.337249 0.872788
vn -0.368907 -0.107185 0.923265
vn -0.368907 -0.107185 0.923265
vn -0.368907 -0.107185 0.923265
vn -0.023530 -0.389581 0.920691
vn -0.023530 -0.389581 0.920691
vn -0.023530 -0.389581 0.920691
vn 0.080921 0.489972 0.867974
vn 0.080921 0.489972 0.867974
vn 0.080922 0.489972 0.867974
vn 0.079172 0.498473 0.863282
vn 0.079172 0.498473 0.863282
vn 0.079172 0.498473 0.863282
vn 0.332389 0.867742 0.369514
vn 0.332389 0.867742 0.369514
vn 0.332389 0.867742 0.369514
vn 0.286769 0.956150 -0.059512
vn 0.286769 0.956150 -0.059512
vn 0.286769 0.956150 -0.059512
vn 0.336297 0.814103 -0.473436
vn 0.336297 0.814103 -0.473436
vn 0.336297 0.814103 -0.473436
vn 0.087433 0.385077 -0.918734
vn 0.087433 0.385077 -0.918733
vn 0.087433 0.385077 -0.918734
vn 0.089219 0.376060 -0.922290
vn 0.089219 0.376060 -0.922290
vn 0.089219 0.376060 -0.922290
vn 0.191810 0.649313 -0.735936
vn 0.191810 0.649313 -0.735936
vn 0.191810 0.649313 -0.735936
vn -0.123908 0.666968 0.734711
vn -0.123908 0.666968 0.734711
vn -0.123908 0.666968 0.734711
vn -0.111549 0.499902 0.858868
vn -0.111549 0.499902 0.858868
vn -0.111549 0.499902 0.858868
vn -0.097935 0.551113 0.828663
vn -0.097935 0.551113 0.828663
vn -0.097935 0.551113 0.828663
vn -0.221138 0.903177 0.367925
vn -0.221138 0.903177 0.367925
vn -0.221138 0.903177 0.367925
vn -0.170100 0.983388 -0.063363
vn -0.170100 0.983388 -0.063363
vn -0.170100 0.983388 -0.063363
vn -0.217201 0.849129 -0.481459
vn -0.217201 0.849129 -0.481459
vn -0.217201 0.849130 -0.481459
vn -0.089954 0.441576 -0.892703
vn -0.089954 0.441576 -0.892703
vn -0.089954 0.441576 -0.892703
vn 0.050010 0.379434 -0.923866
vn 0.050010 0.379434 -0.923866
vn 0.050010 0.379434 -0.923866
vn 0.082995 0.919227 -0.384882
vn 0.082995 0.919227 -0.384882
vn 0.082995 0.919227 -0.384882
vn 0.083328 0.915210 -0.394267
vn 0.083328 0.915210 -0.394267
vn 0.083328 0.915210 -0.394267
vn 0.080567 0.960659 0.265788
vn 0.080567 0.960659 0.265788
vn 0.080567 0.960659 0.265788
vn 0.079762 0.957944 0.275648
vn 0.079762 0.957944 0.275648
vn 0.079762 0.957944 0.275648
vn 0.041701 0.493507 0.868741
vn 0.041701 0.493507 0.868741
vn 0.041701 0.493507 0.868741
vn 0.041700 0.493495 0.868748
vn 0.041700 0.493495 0.868748
vn 0.041700 0.493495 0.868748
vn 0.046932 0.727560 0.684437
vn 0.046932 0.727560 0.684437
vn 0.046932 0.727560 0.684437
vn 0.026613 0.474946 0.879613
vn 0.026613 0.474946 0.879613
vn 0.026613 0.474946 0.879613
vn 0.026613 0.474946 0.879612
vn 0.026613 0.474946 0.879612
vn 0.026613 0.474946 0.879612
vn 0.073493 0.995304 -0.062992
vn 0.073493 0.995304 -0.062992
vn 0.073493 0.995304 -0.062992
vn 0.674544 0.736936 -0.043766
vn 0.674544 0.736936 -0.043766
vn 0.674544 0.736936 -0.043766
vn 0.565360 -0.041720 -0.823788
vn 0.565360 -0.041720 -0.823788
vn 0.565360 -0.041720 -0.823788
vn -0.233366 -0.932986 0.274004
vn -0.233366 -0.932986 0.274004
vn -0.233366 -0.932986 0.274004
vn -0.071833 -0.937370 0.340847
vn -0.071833 -0.937370 0.340848
vn -0.071833 -0.937370 0.340847
vn -0.071833 -0.937370 0.340848
vn -0.071833 -0.937370 0.340848
vn -0.071833 -0.937370 0.340848
vn 0.384280 -0.765882 0.515513
vn 0.384280 -0.765882 0.515513
vn 0.384280 -0.765882 0.515513
vn 0.075292 -0.811736 0.579150
vn 0.075292 -0.811736 0.579150
vn 0.075292 -0.811736 0.579151
vn 0.073493 0.995304 -0.062992
vn 0.073493 0.995304 -0.062992
vn 0.073493 0.995304 -0.062992
vn 0.035013 0.359638 -0.932435
vn 0.035013 0.359638 -0.932435
vn 0.035013 0.359638 -0.932435
vn 0.035013 0.359638 -0.932435
vn 0.035013 0.359638 -0.932435
vn 0.035013 0.359638 -0.932435
vn 0.058717 0.712884 -0.698819
vn 0.058717 0.712884 -0.698819
vn 0.058717 0.712884 -0.698819
vn 0.058717 0.712884 -0.698819
vn 0.058717 0.712884 -0.698820
vn 0.058717 0.712884 -0.698820
vn -0.718792 -0.223032 0.658479
vn -0.718792 -0.223032 0.658479
vn -0.718792 -0.223032 0.658480
vn -0.036460 -0.380463 0.924077
vn -0.036460 -0.380463 0.924077
vn -0.036460 -0.380463 0.924077
vn -0.068218 -0.963929 -0.257269
vn -0.068218 -0.963929 -0.257269
vn -0.068218 -0.963929 -0.257269
vn 0.024864 -0.976423 -0.214428
vn 0.024864 -0.976423 -0.214428
vn 0.024864 -0.976423 -0.214428
vn -0.558015 0.145709 0.816938
vn -0.558015 0.145709 0.816938
vn -0.558015 0.145709 0.816938
vn -0.558562 0.144147 0.816842
vn -0.558562 0.144147 0.816842
vn -0.558562 0.144147 0.816842
vn -0.844588 -0.410601 0.343626
vn -0.844588 -0.410601 0.343626
vn -0.844588 -0.410601 0.343626
vn -0.853256 0.436143 -0.285891
vn -0.853256 0.436143 -0.285891
vn -0.853256 0.436143 -0.285891
vn -0.550954 0.040236 -0.833565
vn -0.550954 0.040236 -0.833565
vn -0.550954 0.040236 -0.833565
vn -0.292170 0.897744 -0.329684
vn -0.292170 0.897744 -0.329684
vn -0.292170 0.897744 -0.329684
vn -0.280806 0.880560 -0.381789
vn -0.280806 0.880560 -0.381789
vn -0.280806 0.880560 -0.381789
vn 0.073493 0.995304 -0.062992
vn 0.073493 0.995304 -0.062992
vn 0.073493 0.995304 -0.062992
vn 0.035013 0.359638 -0.932435
vn 0.035013 0.359638 -0.932435
vn 0.035013 0.359638 -0.932435
vn 0.566255 -0.041601 -0.823179
vn 0.566255 -0.041601 -0.823179
vn 0.566255 -0.041601 -0.823180
vn -0.720989 0.681165 0.127238
vn -0.720989 0.681165 0.127238
vn -0.720989 0.681165 0.127238
vn -0.203463 -0.791317 0.576559
vn -0.203463 -0.791317 0.576559
vn -0.203463 -0.791317 0.576559
vn 0.046932 0.727559 0.684438
vn 0.046932 0.727559 0.684438
vn 0.046932 0.727559 0.684438
vn -0.396429 0.829985 0.392389
vn -0.396429 0.829985 0.392389
vn -0.396429 0.829985 0.392389
vn 0.912838 0.306774 -0.269474
vn 0.912838 0.306774 -0.269474
vn 0.912838 0.306774 -0.269474
vn 0.529124 0.748688 0.399368
vn 0.529124 0.748688 0.399368
vn 0.529124 0.748688 0.399368
vn -0.421680 0.818336 0.390529
vn -0.421680 0.818336 0.390529
vn -0.421680 0.818336 0.390529
vn 0.035013 0.359638 -0.932435
vn 0.035013 0.359638 -0.932435
vn 0.035013 0.359638 -0.932435
vn 0.558087 0.063952 0.827314
vn 0.558087 0.063952 0.827314
vn 0.558087 0.063952 0.827314
s off
g Object_BoneSS00_jpg
usemtl mat_0_BoneSS00_jpg
f 1/1/1 2/2/2 3/3/3
f 2/2/4 4/4/5 5/5/6
f 5/5/7 6/6/8 7/7/9
f 5/5/10 7/7/11 8/8/12
f 9/9/13 8/8/14 7/7/15
f 8/8/16 9/9/17 10/10/18
f 11/11/19 10/10/20 9/9/21
f 10/10/22 11/11/23 12/12/24
f 13/13/25 12/12/26 11/11/27
f 12/12/28 13/13/29 14/14/30
f 15/15/31 14/14/32 13/13/33
f 14/14/34 15/15/35 16/16/36
f 17/17/37 16/16/38 15/15/39
f 16/16/40 17/17/41 18/18/42
f 19/19/43 18/18/44 17/17/45
f 18/18/46 19/19/47 20/20/48
f 21/21/49 20/20/50 19/19/51
f 20/20/52 21/21/53 22/22/54
f 23/23/55 22/22/56 21/21/57
f 22/22/58 23/23/59 24/24/60
f 25/25/61 24/24/62 23/23/63
f 26/26/64 27/27/65 28/28/66
f 27/27/67 26/26/68 29/29/69
f 30/30/70 29/29/71 26/26/72
f 29/29/73 30/30/74 31/31/75
f 32/32/76 31/31/77 30/30/78
f 31/31/79 32/32/80 33/33/81
f 34/34/82 33/33/83 32/32/84
f 33/33/85 34/34/86 35/35/87
f 36/36/88 35/35/89 34/34/90
f 35/35/91 36/36/92 37/37/93
f 38/38/94 37/37/95 36/36/96
f 37/37/97 38/38/98 39/39/99
f 40/40/100 39/39/101 38/38/102
f 41/41/103 42/42/104 43/43/105
f 42/42/106 41/41/107 44/44/108
f 10/10/109 44/44/110 41/41/111
f 44/44/112 10/10/113 45/45/114
f 12/12/115 45/45/116 10/10/117
f 45/45/118 12/12/119 46/46/120
f 14/14/121 46/46/122 12/12/123
f 46/46/124 14/14/125 47/47/126
f 16/16/127 47/47/128 14/14/129
f 47/47/130 16/16/131 48/48/132
f 18/18/133 48/48/134 16/16/135
f 48/48/136 18/18/137 20/20/138
f 44/44/139 49/49/140 42/42/141
f 49/49/142 44/44/143 50/50/144
f 45/45/145 50/50/146 44/44/147
f 50/50/148 45/45/149 51/51/150
f 52/52/151 51/51/152 45/45/153
f 51/51/154 52/52/155 53/53/156
f 54/54/157 53/53/158 52/52/159
f 53/53/160 54/54/161 55/55/162
f 56/56/163 55/55/164 54/54/165
f 55/55/166 56/56/167 20/20/168
f 48/48/169 20/20/170 56/56/171
f 13/13/172 57/57/173 15/15/174
f 57/57/175 13/13/176 58/58/177
f 11/11/178 58/58/179 13/13/180
f 58/58/181 11/11/182 40/40/183
f 9/9/184 40/40/185 11/11/186
f 40/40/187 9/9/188 39/39/189
f 7/7/190 39/39/191 9/9/192
f 39/39/193 7/7/194 59/59/195
f 60/60/196 59/59/197 7/7/198
f 59/59/199 61/61/200 35/35/201
f 62/62/202 55/55/203 63/63/204
f 55/55/205 62/62/206 53/53/207
f 64/64/208 53/53/209 62/62/210
f 53/53/211 64/64/212 51/51/213
f 65/65/214 51/51/215 64/64/216
f 51/51/217 65/65/218 50/50/219
f 66/66/220 50/50/221 65/65/222
f 50/50/223 66/66/224 49/49/225
f 67/67/226 26/26/227 28/28/228
f 26/26/229 67/67/230 30/30/231
f 68/68/232 30/30/233 67/67/234
f 30/30/235 68/68/236 69/69/237
f 70/70/238 69/69/239 68/68/240
f 69/69/241 70/70/242 71/71/243
f 58/58/244 71/71/245 70/70/246
f 71/71/247 58/58/248 40/40/249
f 72/72/250 73/73/251 25/25/252
f 73/73/253 72/72/254 74/74/255
f 75/75/256 74/74/257 72/72/258
f 74/74/259 75/75/260 76/76/261
f 77/77/262 76/76/263 75/75/264
f 76/76/265 77/77/266 57/57/267
f 15/15/268 57/57/269 77/77/270
f 70/70/271 57/57/272 58/58/273
f 57/57/274 70/70/275 76/76/276
f 68/68/277 76/76/278 70/70/279
f 76/76/280 68/68/281 74/74/282
f 67/67/283 74/74/284 68/68/285
f 74/74/286 67/67/287 73/73/288
f 28/28/289 73/73/290 67/67/291
f 23/23/292 72/72/293 25/25/294
f 72/72/295 23/23/296 75/75/297
f 78/78/298 75/75/299 23/23/300
f 75/75/301 78/78/302 79/79/303
f 21/21/304 79/79/305 78/78/306
f 79/79/307 21/21/308 19/19/309
f 46/46/310 52/52/311 45/45/312
f 52/52/313 46/46/314 54/54/315
f 47/47/316 54/54/317 46/46/318
f 54/54/319 47/47/320 56/56/321
f 48/48/322 56/56/323 47/47/324
f 69/69/325 32/32/326 30/30/327
f 32/32/328 69/69/329 80/80/330
f 71/71/331 80/80/332 69/69/333
f 80/80/334 71/71/335 38/38/336
f 40/40/337 38/38/338 71/71/339
f 5/5/340 43/43/341 2/2/342
f 43/43/343 5/5/344 41/41/345
f 8/8/346 41/41/347 5/5/348
f 41/41/349 8/8/350 10/10/351
f 33/33/352 29/29/353 31/31/354
f 29/29/355 33/33/356 81/81/357
f 35/35/358 81/81/359 33/33/360
f 81/81/361 35/35/362 82/82/363
f 80/80/364 34/34/365 32/32/366
f 34/34/367 80/80/368 36/36/369
f 38/38/370 36/36/371 80/80/372
f 79/79/373 77/77/374 75/75/375
f 77/77/376 79/79/377 17/17/378
f 19/19/379 17/17/380 79/79/381
f 37/37/382 59/59/383 35/35/384
f 59/59/385 37/37/386 39/39/387
f 29/29/388 83/83/389 27/27/390
f 83/83/391 29/29/392 81/81/393
f 22/22/394 84/84/395 20/20/396
f 84/84/397 22/22/398 24/24/399
f 81/81/400 82/82/401 83/83/402
f 17/17/403 15/15/404 77/77/405
f 21/21/406 78/78/407 23/23/408
