# This file uses centimeters as units for non-parametric coordinates.

mtllib newone.mtl
g default
v 0.006541 0.004633 0.548350
v -0.045149 0.025720 0.567864
v -0.033648 -0.104804 0.048466
v -0.092201 -0.080920 0.070570
v 0.036400 -0.039668 1.031163
v 0.084044 -0.059105 1.013176
vt 0.678700 0.401500
vt 0.678700 0.405700
vt 0.749500 0.401900
vt 0.749600 0.406300
vt 0.611200 0.405400
vt 0.611100 0.401000
vn -0.293210 -0.928733 0.226898
vn -0.293210 -0.928733 0.226898
vn -0.293210 -0.928733 0.226898
vn -0.293183 -0.928742 0.226898
vn -0.293183 -0.928742 0.226898
vn -0.293183 -0.928742 0.226898
vn -0.396244 -0.916211 -0.059563
vn -0.396244 -0.916211 -0.059563
vn -0.396244 -0.916211 -0.059563
vn -0.396263 -0.916203 -0.059565
vn -0.396263 -0.916203 -0.059565
vn -0.396263 -0.916203 -0.059565
s off
g polySurface39 Object_HP3Skeleton_jpg
usemtl initialShadingGroup
f 1/1/1 2/2/2 3/3/3
f 2/2/4 4/4/5 3/3/6
f 2/2/7 1/1/8 5/5/9
f 5/5/10 1/1/11 6/6/12
g default
v 0.050719 -0.054974 -0.036624
v 0.050808 -0.028786 0.532878
v -0.034251 -0.023127 -0.013957
v -0.008113 -0.006703 0.548597
v -0.001392 0.064440 -0.013813
v 0.014671 0.054020 0.548697
v 0.010984 0.009089 1.056164
v 0.122058 -0.032629 1.081813
v 0.044689 0.101859 1.056867
vt 0.750200 0.459900
vt 0.681700 0.450300
vt 0.711700 0.440300
vt 0.681600 0.440600
vt 0.749600 0.422400
vt 0.681800 0.430700
vt 0.630000 0.441200
vt 0.612100 0.456500
vt 0.611300 0.422600
vn -0.340497 -0.939251 0.043245
vn -0.340497 -0.939251 0.043245
vn -0.340497 -0.939251 0.043245
vn -0.340484 -0.939255 0.043240
vn -0.340484 -0.939255 0.043240
vn -0.340484 -0.939255 0.043240
vn -0.935755 0.351081 0.033227
vn -0.935755 0.351081 0.033227
vn -0.935755 0.351081 0.033227
vn -0.226368 0.086548 -0.970189
vn -0.226368 0.086548 -0.970189
vn -0.226368 0.086548 -0.970189
vn -0.935765 0.351057 0.033224
vn -0.935765 0.351057 0.033224
vn -0.935765 0.351057 0.033224
vn -0.936001 0.351159 0.024292
vn -0.936001 0.351159 0.024292
vn -0.936001 0.351159 0.024292
vn -0.359888 -0.932025 0.042540
vn -0.359888 -0.932025 0.042540
vn -0.359888 -0.932025 0.042540
vn -0.341834 -0.939000 0.037796
vn -0.341834 -0.939000 0.037796
vn -0.341834 -0.939000 0.037796
vn -0.201043 0.065632 0.977381
vn -0.201043 0.065632 0.977381
vn -0.201043 0.065632 0.977381
vn -0.939689 0.341231 0.023384
vn -0.939689 0.341231 0.023384
vn -0.939689 0.341231 0.023384
s off
g Object_HP3Skeleton_jpg polySurface21
usemtl initialShadingGroup
f 7/7/13 8/8/14 9/9/15
f 10/10/16 9/9/17 8/8/18
f 9/9/19 10/10/20 11/11/21
f 9/9/22 11/11/23 7/7/24
f 11/11/25 10/10/26 12/12/27
f 10/10/28 13/13/29 12/12/30
f 13/13/31 10/10/32 14/14/33
f 14/14/34 10/10/35 8/8/36
f 13/13/37 14/14/38 15/15/39
f 15/15/40 12/12/41 13/13/42
g default
v 0.014647 0.023030 0.573252
v -0.023979 -0.082678 0.073477
v -0.052368 0.007538 0.591695
v -0.040867 -0.122985 0.072297
v -0.000679 -0.013548 0.572181
v 0.091491 -0.042288 1.038032
v 0.076825 -0.077286 1.037006
v 0.029181 -0.057850 1.054994
v -0.099420 -0.099101 0.094400
vt 0.678900 0.389700
vt 0.745500 0.390200
vt 0.678900 0.382400
vt 0.749800 0.395700
vt 0.678800 0.395100
vt 0.617600 0.389400
vt 0.611900 0.394500
vt 0.611900 0.382000
vt 0.749700 0.382700
vn -0.268195 0.946500 -0.179469
vn -0.268195 0.946500 -0.179469
vn -0.268195 0.946500 -0.179469
vn 0.922154 -0.386679 0.010517
vn 0.922154 -0.386679 0.010517
vn 0.922154 -0.386679 0.010517
vn 0.922155 -0.386677 0.010515
vn 0.922155 -0.386677 0.010515
vn 0.922155 -0.386677 0.010515
vn 0.905368 -0.373416 -0.202163
vn 0.905368 -0.373416 -0.202163
vn 0.905368 -0.373416 -0.202163
vn 0.905353 -0.373452 -0.202162
vn 0.905353 -0.373452 -0.202162
vn 0.905353 -0.373452 -0.202162
vn 0.294603 -0.151091 0.943600
vn 0.294603 -0.151091 0.943600
vn 0.294603 -0.151091 0.943600
vn -0.195542 0.966179 0.168111
vn -0.195542 0.966179 0.168111
vn -0.195542 0.966179 0.168111
vn -0.177865 0.969582 0.168150
vn -0.177865 0.969582 0.168150
vn -0.177865 0.969582 0.168150
vn -0.256505 0.949749 -0.179394
vn -0.256505 0.949749 -0.179394
vn -0.256506 0.949749 -0.179394
vn -0.294590 0.151067 -0.943608
vn -0.294590 0.151067 -0.943608
vn -0.294590 0.151067 -0.943608
s off
g Object_HP3Skeleton_jpg polySurface36
usemtl initialShadingGroup
f 16/16/43 17/17/44 18/18/45
f 17/17/46 16/16/47 19/19/48
f 20/20/49 19/19/50 16/16/51
f 21/21/52 20/20/53 16/16/54
f 22/22/55 20/20/56 21/21/57
f 23/23/58 22/22/59 21/21/60
f 21/21/61 16/16/62 23/23/63
f 18/18/64 23/23/65 16/16/66
f 18/18/67 17/17/68 24/24/69
f 19/19/70 24/24/71 17/17/72
g default
v 0.072697 0.029705 0.535896
v 0.082683 0.030363 -0.033565
v 0.013774 0.051788 0.551614
v 0.049822 -0.057206 -0.033707
v 0.049910 -0.031018 0.535795
v 0.154867 0.057908 1.085431
v 0.043792 0.099627 1.059784
v 0.121161 -0.034862 1.084730
v -0.002289 0.062208 -0.010895
vt 0.680800 0.488900
vt 0.710200 0.488200
vt 0.680700 0.477400
vt 0.750600 0.505400
vt 0.681000 0.499600
vt 0.631400 0.489300
vt 0.612300 0.473200
vt 0.613100 0.506200
vt 0.750300 0.466200
vn 0.352637 0.935732 0.007266
vn 0.352637 0.935732 0.007266
vn 0.352637 0.935732 0.007266
vn 0.936122 -0.351310 0.016009
vn 0.936122 -0.351310 0.016009
vn 0.936122 -0.351310 0.016009
vn 0.936120 -0.351316 0.016010
vn 0.936120 -0.351316 0.016010
vn 0.936120 -0.351315 0.016010
vn 0.929427 -0.348575 -0.121082
vn 0.929427 -0.348575 -0.121082
vn 0.929427 -0.348575 -0.121083
vn 0.326478 0.940207 -0.097071
vn 0.326478 0.940207 -0.097071
vn 0.326478 0.940207 -0.097071
vn 0.371435 0.922069 -0.108743
vn 0.371435 0.922069 -0.108743
vn 0.371435 0.922069 -0.108743
vn -0.201012 0.065650 0.977386
vn -0.201012 0.065650 0.977386
vn -0.201012 0.065650 0.977386
vn 0.932993 -0.338053 -0.123469
vn 0.932993 -0.338053 -0.123469
vn 0.932993 -0.338053 -0.123469
vn 0.352623 0.935737 0.007263
vn 0.352623 0.935737 0.007263
vn 0.352623 0.935737 0.007263
vn -0.226400 0.086530 -0.970183
vn -0.226400 0.086530 -0.970183
vn -0.226400 0.086530 -0.970183
s off
g Object_HP3Skeleton_jpg polySurface22
usemtl initialShadingGroup
f 25/25/73 26/26/74 27/27/75
f 26/26/76 25/25/77 28/28/78
f 29/29/79 28/28/80 25/25/81
f 25/25/82 30/30/83 29/29/84
f 25/25/85 27/27/86 30/30/87
f 30/30/88 27/27/89 31/31/90
f 31/31/91 32/32/92 30/30/93
f 30/30/94 32/32/95 29/29/96
f 33/33/97 27/27/98 26/26/99
f 28/28/100 33/33/101 26/26/102
