# This file uses centimeters as units for non-parametric coordinates.

mtllib point5.mtl
g default
v -1.522569 -0.017963 0.058692
v -1.519290 0.029285 0.078275
v -1.488341 0.047779 0.000169
v -1.522569 -0.017963 0.058692
v -1.482752 -0.050096 0.098272
v -1.522569 -0.017963 0.058692
v -1.465370 -0.026432 0.004998
v -1.331976 -0.036203 0.006238
v -1.370951 -0.070701 -0.096848
v -1.241191 -0.032572 0.006428
v -1.219290 -0.017679 -0.051882
v -0.319268 -0.073042 -0.032556
v -0.300257 -0.036890 -0.053752
v -0.141170 -0.085546 -0.128247
v -0.174331 -0.019357 -0.063513
v 0.003846 -0.096168 -0.126899
v -0.066226 -0.027276 -0.062508
v 0.045910 -0.095920 -0.073899
v -0.013751 -0.041053 -0.019994
v -0.015462 -0.060112 0.013862
v 0.027342 0.008346 0.009704
v -0.014053 -0.036914 0.045045
v -0.066910 -0.017891 0.084982
v -0.031539 -0.076365 0.144715
v -0.142431 -0.068242 0.143684
v -1.324510 0.074231 0.073291
v -1.366334 0.021411 0.132306
v -1.236521 0.040901 0.083040
v -1.432614 0.082149 0.072286
v -1.367978 0.157718 0.029527
v -1.468326 0.165069 0.028594
v -1.467995 0.160532 -0.042707
v -1.520629 0.121737 -0.004687
v -1.486630 0.066838 -0.033687
v -1.488341 0.047779 0.000169
v -1.552642 0.021176 -0.088760
v -1.556129 -0.023211 -0.063378
v -1.510090 0.014730 -0.140974
v -1.515967 -0.060078 -0.098196
v -1.365074 0.004107 -0.139625
v -1.371860 -0.058219 0.099303
v -1.366334 0.021411 0.132306
v -1.477226 0.029534 0.131275
v -1.209438 -0.011156 0.062676
v -0.304580 -0.087275 0.014250
v -0.147048 -0.160354 -0.085469
v -0.002032 -0.170976 -0.084121
v 0.042422 -0.140307 -0.048517
v -1.236521 0.040901 0.083040
v -0.327972 -0.066626 0.058660
v -0.147957 -0.147872 0.110681
v -0.182481 -0.120406 0.016924
v -0.037066 -0.155995 0.111712
v -0.049086 -0.130177 0.018165
v 0.007733 -0.130060 0.072919
v 0.007146 -0.098280 0.016396
v -0.297500 0.002845 -0.037284
v -1.235771 0.030601 -0.078833
v -1.516312 0.013315 0.002233
v -1.522569 -0.017963 0.058692
v -1.522569 -0.017963 0.058692
v 0.011012 -0.082812 0.092502
v -0.015462 -0.060112 0.013862
v -0.031539 -0.076365 0.144715
v -0.142431 -0.068242 0.143684
v -0.300856 -0.028675 0.075356
v -1.232844 0.087704 0.056277
v -1.209402 0.102484 -0.002019
v -1.367647 0.153181 -0.041774
v -1.232313 0.080421 -0.058185
v -1.323826 0.064846 -0.074199
v -0.175014 -0.009972 0.083977
v -0.300856 -0.028675 0.075356
v -0.297923 0.008654 0.054009
v -0.119044 0.066232 0.041138
v -0.313840 0.022978 0.007192
v -0.118713 0.061695 -0.030163
v -0.018696 0.058881 0.042071
v -0.018365 0.054344 -0.029230
v -1.431930 0.072764 -0.075204
v -1.486931 0.070976 0.031352
v -1.519290 0.029285 0.078275
v -1.477226 0.029534 0.131275
v 0.011012 -0.082812 0.092502
vt 0.861100 0.914400
vt 0.979100 0.914400
vt 0.670500 1.016500
vt 0.861100 0.914400
vt 0.861100 0.887000
vt 0.861100 0.914400
vt 0.743200 0.887000
vt 0.743200 0.745400
vt 0.625200 0.745400
vt 0.743200 0.683500
vt 0.625200 0.683500
vt 0.625200 0.683500
vt 0.507300 0.683500
vt 0.507300 0.745400
vt 0.389300 0.745400
vt 0.507300 0.887000
vt 0.389300 0.887000
vt 0.507300 0.914400
vt 0.389300 1.002500
vt 0.743200 1.016500
vt 0.271400 0.914400
vt 0.153400 1.002500
vt 0.153400 0.887000
vt 0.035500 0.887000
vt 0.035500 0.745400
vt 0.153400 0.745400
vt 0.035500 0.745400
vt 0.035500 0.683500
vt 0.153400 0.887000
vt 0.232100 0.745400
vt 0.232100 0.887000
vt 0.310700 0.887000
vt 0.271400 0.914400
vt 0.389300 1.002500
vt 0.743200 1.016500
vt 0.507300 0.914400
vt 0.625200 0.914400
vt 0.507300 0.887000
vt 0.625200 0.887000
vt 0.507300 0.745400
vt 0.861100 0.745400
vt 0.979100 0.745400
vt 0.979100 0.887000
vt 0.861100 0.683500
vt 0.743200 0.683500
vt 0.625200 0.745400
vt 0.625200 0.887000
vt 0.625200 0.914400
vt 0.979100 0.683500
vt 0.861100 0.683500
vt 0.861100 0.745400
vt 0.743200 0.745400
vt 0.861100 0.887000
vt 0.743200 0.887000
vt 0.861100 0.914400
vt 0.743200 1.002500
vt 0.389300 0.683500
vt 0.507300 0.683500
vt 0.743200 1.002500
vt 0.861100 0.914400
vt 0.861100 0.914400
vt 0.979100 0.914400
vt 0.670500 1.016500
vt 0.979100 0.887000
vt 0.979100 0.745400
vt 0.979100 0.683500
vt 0.153400 0.683500
vt 0.271400 0.683500
vt 0.310700 0.745400
vt 0.389300 0.683500
vt 0.389300 0.745400
vt 0.153400 0.745400
vt 0.035500 0.683500
vt 0.153400 0.683500
vt 0.232100 0.745400
vt 0.271400 0.683500
vt 0.310700 0.745400
vt 0.232100 0.887000
vt 0.310700 0.887000
vt 0.389300 0.887000
vt 0.153400 1.002500
vt 0.035500 0.914400
vt 0.035500 0.887000
vt 0.035500 0.914400
vn -0.926526 0.197119 -0.320459
vn -0.926526 0.197119 -0.320459
vn -0.926526 0.197119 -0.320459
vn -0.767088 -0.199480 0.609740
vn -0.767088 -0.199480 0.609741
vn -0.767088 -0.199480 0.609740
vn -0.405087 -0.865365 -0.295037
vn -0.405087 -0.865366 -0.295037
vn -0.405087 -0.865365 -0.295037
vn -0.068218 -0.963929 -0.257268
vn -0.068218 -0.963929 -0.257268
vn -0.068218 -0.963929 -0.257268
vn -0.071833 -0.937370 0.340847
vn -0.071833 -0.937370 0.340847
vn -0.071833 -0.937370 0.340847
vn 0.037441 -0.951819 0.304367
vn 0.037441 -0.951819 0.304367
vn 0.037441 -0.951819 0.304367
vn 0.355506 -0.928901 -0.103726
vn 0.355506 -0.928901 -0.103726
vn 0.355506 -0.928901 -0.103726
vn -0.053497 -0.962507 -0.265928
vn -0.053497 -0.962507 -0.265928
vn -0.053497 -0.962507 -0.265928
vn -0.012233 -0.500963 -0.865382
vn -0.012233 -0.500963 -0.865382
vn -0.012233 -0.500963 -0.865382
vn -0.471981 -0.247866 -0.846047
vn -0.471981 -0.247866 -0.846047
vn -0.471981 -0.247866 -0.846047
vn -0.148443 0.652453 -0.743149
vn -0.148443 0.652453 -0.743149
vn -0.148443 0.652453 -0.743149
vn 0.058717 0.712884 -0.698819
vn 0.058717 0.712884 -0.698820
vn 0.058717 0.712884 -0.698820
vn 0.058717 0.712884 -0.698819
vn 0.058717 0.712884 -0.698819
vn 0.058717 0.712884 -0.698819
vn 0.458147 0.809391 -0.367406
vn 0.458147 0.809391 -0.367406
vn 0.458147 0.809391 -0.367406
vn 0.471871 0.823224 -0.315659
vn 0.471871 0.823224 -0.315659
vn 0.471871 0.823224 -0.315659
vn 0.783615 0.523601 0.334350
vn 0.783615 0.523601 0.334350
vn 0.783615 0.523601 0.334350
vn 0.813132 -0.523838 -0.253794
vn 0.813132 -0.523838 -0.253794
vn 0.813132 -0.523838 -0.253794
vn 0.810447 -0.486968 0.325636
vn 0.810447 -0.486968 0.325636
vn 0.810447 -0.486968 0.325636
vn 0.614105 0.053185 0.787430
vn 0.614105 0.053185 0.787430
vn 0.614105 0.053185 0.787430
vn 0.557465 0.733819 0.388256
vn 0.557465 0.733819 0.388256
vn 0.557465 0.733819 0.388256
vn 0.046932 0.727559 0.684438
vn 0.046932 0.727559 0.684438
vn 0.046932 0.727559 0.684438
vn 0.173578 0.669510 0.722237
vn 0.173578 0.669510 0.722238
vn 0.173578 0.669510 0.722238
vn 0.046932 0.727560 0.684437
vn 0.046932 0.727560 0.684437
vn 0.046932 0.727560 0.684437
vn 0.026613 0.474946 0.879613
vn 0.026613 0.474946 0.879613
vn 0.026613 0.474946 0.879613
vn 0.026613 0.474946 0.879612
vn 0.026613 0.474946 0.879612
vn 0.026613 0.474946 0.879612
vn 0.073493 0.995304 -0.062992
vn 0.073493 0.995304 -0.062992
vn 0.073493 0.995304 -0.062992
vn -0.616936 0.785238 -0.052826
vn -0.616936 0.785238 -0.052826
vn -0.616936 0.785238 -0.052826
vn -0.606150 0.044110 -0.794126
vn -0.606150 0.044110 -0.794126
vn -0.606150 0.044110 -0.794126
vn -0.875947 -0.400110 -0.269496
vn -0.875947 -0.400110 -0.269496
vn -0.875947 -0.400110 -0.269496
vn -0.705006 0.632645 0.320511
vn -0.705006 0.632645 0.320511
vn -0.705006 0.632645 0.320511
vn -0.807560 0.339305 0.482410
vn -0.807560 0.339305 0.482410
vn -0.807560 0.339305 0.482410
vn -0.761543 -0.275601 -0.586597
vn -0.761543 -0.275601 -0.586597
vn -0.761543 -0.275601 -0.586597
vn -0.761540 -0.275605 -0.586600
vn -0.761540 -0.275605 -0.586600
vn -0.761540 -0.275605 -0.586600
vn -0.028150 -0.494541 -0.868699
vn -0.028150 -0.494541 -0.868699
vn -0.028150 -0.494541 -0.868698
vn -0.036460 -0.380463 0.924077
vn -0.036460 -0.380463 0.924077
vn -0.036460 -0.380463 0.924077
vn 0.307317 -0.382472 0.871361
vn 0.307317 -0.382472 0.871361
vn 0.307317 -0.382472 0.871361
vn 0.310963 -0.933263 0.179784
vn 0.310963 -0.933263 0.179784
vn 0.310963 -0.933263 0.179784
vn -0.057045 -0.921901 0.383203
vn -0.057045 -0.921901 0.383203
vn -0.057045 -0.921901 0.383203
vn -0.053769 -0.959928 -0.275040
vn -0.053769 -0.959928 -0.275040
vn -0.053769 -0.959928 -0.275040
vn -0.477112 -0.871255 -0.115232
vn -0.477112 -0.871255 -0.115232
vn -0.477112 -0.871255 -0.115232
vn -0.452984 -0.415468 -0.788791
vn -0.452984 -0.415468 -0.788791
vn -0.452984 -0.415468 -0.788791
vn -0.028150 -0.494541 -0.868698
vn -0.028150 -0.494541 -0.868698
vn -0.028150 -0.494541 -0.868698
vn -0.028150 -0.494541 -0.868698
vn -0.028150 -0.494541 -0.868699
vn -0.028150 -0.494541 -0.868699
vn 0.723970 -0.384421 -0.572789
vn 0.723970 -0.384421 -0.572789
vn 0.723970 -0.384421 -0.572789
vn 0.723974 -0.384418 -0.572787
vn 0.723974 -0.384418 -0.572787
vn 0.723974 -0.384418 -0.572787
vn 0.839320 0.218668 0.497721
vn 0.839320 0.218668 0.497721
vn 0.839320 0.218668 0.497721
vn 0.371459 -0.164216 0.913811
vn 0.371459 -0.164216 0.913811
vn 0.371459 -0.164216 0.913811
vn -0.019240 -0.372904 0.927670
vn -0.019240 -0.372904 0.927670
vn -0.019240 -0.372904 0.927670
vn -0.055854 -0.916280 0.396625
vn -0.055854 -0.916280 0.396625
vn -0.055854 -0.916280 0.396625
vn -0.446295 -0.877973 0.173160
vn -0.446295 -0.877973 0.173160
vn -0.446295 -0.877973 0.173160
vn -0.253587 -0.949499 -0.184784
vn -0.253587 -0.949499 -0.184784
vn -0.253587 -0.949499 -0.184784
vn -0.068218 -0.963929 -0.257269
vn -0.068218 -0.963929 -0.257269
vn -0.068218 -0.963929 -0.257269
vn -0.068218 -0.963929 -0.257268
vn -0.068218 -0.963929 -0.257268
vn -0.068218 -0.963929 -0.257268
vn 0.280059 -0.915553 -0.288668
vn 0.280059 -0.915553 -0.288668
vn 0.280058 -0.915553 -0.288668
vn 0.431041 -0.784617 -0.445622
vn 0.431041 -0.784617 -0.445622
vn 0.431041 -0.784617 -0.445622
vn 0.819217 0.503480 0.274574
vn 0.819217 0.503480 0.274574
vn 0.819217 0.503480 0.274574
vn 0.849246 0.511686 0.130228
vn 0.849246 0.511686 0.130228
vn 0.849246 0.511686 0.130228
vn -0.124721 0.387260 -0.913496
vn -0.124721 0.387260 -0.913496
vn -0.124721 0.387260 -0.913496
vn 0.052129 0.379266 -0.923818
vn 0.052129 0.379266 -0.923818
vn 0.052129 0.379266 -0.923818
vn -0.012027 -0.490518 -0.871348
vn -0.012027 -0.490518 -0.871348
vn -0.012027 -0.490518 -0.871348
vn 0.455797 -0.310142 -0.834303
vn 0.455797 -0.310142 -0.834303
vn 0.455797 -0.310142 -0.834303
vn 0.399184 -0.478573 -0.782061
vn 0.399184 -0.478573 -0.782061
vn 0.399184 -0.478573 -0.782061
vn -0.028150 -0.494541 -0.868698
vn -0.028150 -0.494541 -0.868698
vn -0.028150 -0.494541 -0.868698
vn -0.071833 -0.937370 0.340848
vn -0.071833 -0.937370 0.340848
vn -0.071833 -0.937370 0.340848
vn -0.552437 -0.673897 0.490588
vn -0.552437 -0.673897 0.490588
vn -0.552437 -0.673897 0.490588
vn -0.532451 -0.714040 -0.454580
vn -0.532451 -0.714040 -0.454580
vn -0.532451 -0.714040 -0.454580
vn -0.742049 0.617846 0.260059
vn -0.742049 0.617845 0.260059
vn -0.742049 0.617845 0.260059
vn 0.951125 0.059578 -0.303004
vn 0.951125 0.059578 -0.303003
vn 0.951125 0.059578 -0.303004
vn 0.718426 -0.308296 0.623552
vn 0.718426 -0.308296 0.623552
vn 0.718426 -0.308296 0.623552
vn 0.718428 -0.308296 0.623550
vn 0.718428 -0.308296 0.623550
vn 0.718428 -0.308296 0.623550
vn -0.036460 -0.380463 0.924077
vn -0.036460 -0.380463 0.924077
vn -0.036460 -0.380463 0.924077
vn -0.036460 -0.380463 0.924077
vn -0.036460 -0.380463 0.924077
vn -0.036460 -0.380463 0.924077
vn -0.395902 -0.328013 0.857711
vn -0.395902 -0.328013 0.857711
vn -0.395902 -0.328013 0.857711
vn -0.415185 -0.101082 0.904104
vn -0.415185 -0.101082 0.904104
vn -0.415185 -0.101082 0.904104
vn -0.021418 -0.389724 0.920683
vn -0.021418 -0.389724 0.920683
vn -0.021418 -0.389724 0.920683
vn 0.089141 0.489135 0.867641
vn 0.089141 0.489135 0.867641
vn 0.089141 0.489135 0.867641
vn 0.087021 0.497681 0.862984
vn 0.087021 0.497681 0.862984
vn 0.087021 0.497681 0.862984
vn 0.370177 0.854083 0.365392
vn 0.370177 0.854083 0.365392
vn 0.370177 0.854083 0.365392
vn 0.317922 0.946295 -0.058741
vn 0.317922 0.946295 -0.058741
vn 0.317922 0.946295 -0.058741
vn 0.374036 0.801098 -0.467267
vn 0.374036 0.801098 -0.467267
vn 0.374036 0.801098 -0.467267
vn 0.095279 0.384334 -0.918264
vn 0.095279 0.384334 -0.918264
vn 0.095279 0.384334 -0.918264
vn 0.097435 0.375277 -0.921777
vn 0.097435 0.375277 -0.921777
vn 0.097435 0.375277 -0.921777
vn 0.212518 0.645705 -0.733418
vn 0.212518 0.645705 -0.733418
vn 0.212518 0.645705 -0.733418
vn -0.149040 0.665791 0.731102
vn -0.149040 0.665791 0.731102
vn -0.149040 0.665791 0.731102
vn -0.132924 0.499854 0.855849
vn -0.132924 0.499854 0.855849
vn -0.132924 0.499854 0.855849
vn -0.117919 0.551027 0.826114
vn -0.117919 0.551028 0.826114
vn -0.117919 0.551028 0.826114
vn -0.261793 0.894401 0.362644
vn -0.261793 0.894401 0.362644
vn -0.261793 0.894401 0.362644
vn -0.205842 0.976549 -0.063094
vn -0.205842 0.976549 -0.063094
vn -0.205842 0.976549 -0.063094
vn -0.257908 0.841070 -0.475484
vn -0.257908 0.841070 -0.475484
vn -0.257908 0.841070 -0.475484
vn -0.109961 0.441802 -0.890348
vn -0.109961 0.441802 -0.890348
vn -0.109961 0.441802 -0.890348
vn 0.052129 0.379267 -0.923818
vn 0.052129 0.379267 -0.923818
vn 0.052129 0.379267 -0.923818
vn 0.084873 0.919067 -0.384855
vn 0.084873 0.919067 -0.384855
vn 0.084873 0.919067 -0.384855
vn 0.085290 0.915042 -0.394238
vn 0.085290 0.915042 -0.394238
vn 0.085290 0.915042 -0.394238
vn 0.082536 0.960489 0.265799
vn 0.082536 0.960489 0.265799
vn 0.082536 0.960489 0.265799
vn 0.081651 0.957781 0.275659
vn 0.081651 0.957781 0.275659
vn 0.081651 0.957781 0.275659
vn 0.043820 0.493337 0.868734
vn 0.043820 0.493337 0.868734
vn 0.043820 0.493336 0.868734
vn 0.043818 0.493325 0.868741
vn 0.043818 0.493325 0.868741
vn 0.043818 0.493325 0.868741
vn 0.046932 0.727560 0.684437
vn 0.046932 0.727560 0.684437
vn 0.046932 0.727560 0.684437
vn 0.026613 0.474946 0.879613
vn 0.026613 0.474946 0.879613
vn 0.026613 0.474946 0.879613
vn 0.026613 0.474946 0.879612
vn 0.026613 0.474946 0.879612
vn 0.026613 0.474946 0.879612
vn 0.073493 0.995304 -0.062992
vn 0.073493 0.995304 -0.062992
vn 0.073493 0.995304 -0.062992
vn 0.725638 0.686893 -0.040345
vn 0.725638 0.686893 -0.040345
vn 0.725638 0.686893 -0.040345
vn 0.620689 -0.045758 -0.782720
vn 0.620689 -0.045758 -0.782721
vn 0.620689 -0.045758 -0.782721
vn -0.257509 -0.927037 0.272564
vn -0.257509 -0.927037 0.272564
vn -0.257509 -0.927037 0.272564
vn -0.071833 -0.937370 0.340847
vn -0.071833 -0.937370 0.340848
vn -0.071833 -0.937370 0.340847
vn -0.071833 -0.937370 0.340848
vn -0.071833 -0.937370 0.340848
vn -0.071833 -0.937370 0.340848
vn 0.439181 -0.746534 0.499807
vn 0.439181 -0.746534 0.499807
vn 0.439181 -0.746534 0.499807
vn 0.096779 -0.810667 0.577454
vn 0.096779 -0.810667 0.577454
vn 0.096779 -0.810667 0.577454
vn 0.073493 0.995304 -0.062992
vn 0.073493 0.995304 -0.062992
vn 0.073493 0.995304 -0.062992
vn 0.035013 0.359638 -0.932435
vn 0.035013 0.359638 -0.932435
vn 0.035013 0.359638 -0.932435
vn 0.035013 0.359638 -0.932435
vn 0.035013 0.359638 -0.932435
vn 0.035013 0.359638 -0.932435
vn 0.058717 0.712884 -0.698819
vn 0.058717 0.712884 -0.698819
vn 0.058717 0.712884 -0.698819
vn 0.058717 0.712884 -0.698819
vn 0.058717 0.712884 -0.698820
vn 0.058717 0.712884 -0.698820
vn -0.767089 -0.199480 0.609740
vn -0.767089 -0.199480 0.609740
vn -0.767089 -0.199480 0.609740
vn -0.036460 -0.380463 0.924077
vn -0.036460 -0.380463 0.924077
vn -0.036460 -0.380463 0.924077
vn -0.068218 -0.963929 -0.257269
vn -0.068218 -0.963929 -0.257269
vn -0.068218 -0.963929 -0.257269
vn 0.039493 -0.976041 -0.213972
vn 0.039493 -0.976041 -0.213972
vn 0.039493 -0.976041 -0.213972
vn -0.613718 0.144655 0.776161
vn -0.613718 0.144655 0.776161
vn -0.613718 0.144655 0.776161
vn -0.614257 0.143164 0.776011
vn -0.614257 0.143164 0.776011
vn -0.614257 0.143164 0.776011
vn -0.878634 -0.363240 0.309933
vn -0.878634 -0.363240 0.309933
vn -0.878634 -0.363240 0.309933
vn -0.881639 0.396854 -0.255380
vn -0.881639 0.396854 -0.255380
vn -0.881639 0.396854 -0.255380
vn -0.607027 0.044350 -0.793443
vn -0.607027 0.044350 -0.793443
vn -0.607027 0.044350 -0.793443
vn -0.340965 0.882765 -0.323216
vn -0.340965 0.882765 -0.323216
vn -0.340965 0.882765 -0.323216
vn -0.328448 0.867011 -0.374719
vn -0.328448 0.867011 -0.374719
vn -0.328448 0.867011 -0.374719
vn 0.073493 0.995304 -0.062992
vn 0.073493 0.995304 -0.062992
vn 0.073493 0.995304 -0.062992
vn 0.035013 0.359638 -0.932435
vn 0.035013 0.359638 -0.932435
vn 0.035013 0.359638 -0.932435
vn 0.621578 -0.045648 -0.782021
vn 0.621578 -0.045648 -0.782021
vn 0.621578 -0.045648 -0.782021
vn -0.767887 0.630143 0.115194
vn -0.767887 0.630143 0.115194
vn -0.767887 0.630143 0.115194
vn -0.224529 -0.787130 0.574467
vn -0.224529 -0.787130 0.574467
vn -0.224529 -0.787130 0.574467
vn 0.046932 0.727559 0.684438
vn 0.046932 0.727559 0.684438
vn 0.046932 0.727559 0.684438
vn -0.451675 0.807740 0.378874
vn -0.451675 0.807740 0.378874
vn -0.451675 0.807740 0.378874
vn 0.934625 0.263810 -0.238496
vn 0.934625 0.263810 -0.238496
vn 0.934625 0.263810 -0.238496
vn 0.581616 0.716290 0.385553
vn 0.581616 0.716290 0.385553
vn 0.581616 0.716290 0.385553
vn -0.478068 0.793914 0.375702
vn -0.478068 0.793914 0.375702
vn -0.478068 0.793914 0.375702
vn 0.035013 0.359638 -0.932435
vn 0.035013 0.359638 -0.932435
vn 0.035013 0.359638 -0.932435
vn 0.613786 0.054739 0.787572
vn 0.613786 0.054739 0.787572
vn 0.613786 0.054739 0.787572
s off
g Object_BoneSS00_jpg
usemtl mat_0_BoneSS00_jpg
f 1/1/1 2/2/2 3/3/3
f 2/2/4 4/4/5 5/5/6
f 5/5/7 6/6/8 7/7/9
f 5/5/10 7/7/11 8/8/12
f 9/9/13 8/8/14 7/7/15
f 8/8/16 9/9/17 10/10/18
f 11/11/19 10/10/20 9/9/21
f 10/10/22 11/11/23 12/12/24
f 13/13/25 12/12/26 11/11/27
f 12/12/28 13/13/29 14/14/30
f 15/15/31 14/14/32 13/13/33
f 14/14/34 15/15/35 16/16/36
f 17/17/37 16/16/38 15/15/39
f 16/16/40 17/17/41 18/18/42
f 19/19/43 18/18/44 17/17/45
f 18/18/46 19/19/47 20/20/48
f 21/21/49 20/20/50 19/19/51
f 20/20/52 21/21/53 22/22/54
f 23/23/55 22/22/56 21/21/57
f 22/22/58 23/23/59 24/24/60
f 25/25/61 24/24/62 23/23/63
f 26/26/64 27/27/65 28/28/66
f 27/27/67 26/26/68 29/29/69
f 30/30/70 29/29/71 26/26/72
f 29/29/73 30/30/74 31/31/75
f 32/32/76 31/31/77 30/30/78
f 31/31/79 32/32/80 33/33/81
f 34/34/82 33/33/83 32/32/84
f 33/33/85 34/34/86 35/35/87
f 36/36/88 35/35/89 34/34/90
f 35/35/91 36/36/92 37/37/93
f 38/38/94 37/37/95 36/36/96
f 37/37/97 38/38/98 39/39/99
f 40/40/100 39/39/101 38/38/102
f 41/41/103 42/42/104 43/43/105
f 42/42/106 41/41/107 44/44/108
f 10/10/109 44/44/110 41/41/111
f 44/44/112 10/10/113 45/45/114
f 12/12/115 45/45/116 10/10/117
f 45/45/118 12/12/119 46/46/120
f 14/14/121 46/46/122 12/12/123
f 46/46/124 14/14/125 47/47/126
f 16/16/127 47/47/128 14/14/129
f 47/47/130 16/16/131 48/48/132
f 18/18/133 48/48/134 16/16/135
f 48/48/136 18/18/137 20/20/138
f 44/44/139 49/49/140 42/42/141
f 49/49/142 44/44/143 50/50/144
f 45/45/145 50/50/146 44/44/147
f 50/50/148 45/45/149 51/51/150
f 52/52/151 51/51/152 45/45/153
f 51/51/154 52/52/155 53/53/156
f 54/54/157 53/53/158 52/52/159
f 53/53/160 54/54/161 55/55/162
f 56/56/163 55/55/164 54/54/165
f 55/55/166 56/56/167 20/20/168
f 48/48/169 20/20/170 56/56/171
f 13/13/172 57/57/173 15/15/174
f 57/57/175 13/13/176 58/58/177
f 11/11/178 58/58/179 13/13/180
f 58/58/181 11/11/182 40/40/183
f 9/9/184 40/40/185 11/11/186
f 40/40/187 9/9/188 39/39/189
f 7/7/190 39/39/191 9/9/192
f 39/39/193 7/7/194 59/59/195
f 60/60/196 59/59/197 7/7/198
f 59/59/199 61/61/200 35/35/201
f 62/62/202 55/55/203 63/63/204
f 55/55/205 62/62/206 53/53/207
f 64/64/208 53/53/209 62/62/210
f 53/53/211 64/64/212 51/51/213
f 65/65/214 51/51/215 64/64/216
f 51/51/217 65/65/218 50/50/219
f 66/66/220 50/50/221 65/65/222
f 50/50/223 66/66/224 49/49/225
f 67/67/226 26/26/227 28/28/228
f 26/26/229 67/67/230 30/30/231
f 68/68/232 30/30/233 67/67/234
f 30/30/235 68/68/236 69/69/237
f 70/70/238 69/69/239 68/68/240
f 69/69/241 70/70/242 71/71/243
f 58/58/244 71/71/245 70/70/246
f 71/71/247 58/58/248 40/40/249
f 72/72/250 73/73/251 25/25/252
f 73/73/253 72/72/254 74/74/255
f 75/75/256 74/74/257 72/72/258
f 74/74/259 75/75/260 76/76/261
f 77/77/262 76/76/263 75/75/264
f 76/76/265 77/77/266 57/57/267
f 15/15/268 57/57/269 77/77/270
f 70/70/271 57/57/272 58/58/273
f 57/57/274 70/70/275 76/76/276
f 68/68/277 76/76/278 70/70/279
f 76/76/280 68/68/281 74/74/282
f 67/67/283 74/74/284 68/68/285
f 74/74/286 67/67/287 73/73/288
f 28/28/289 73/73/290 67/67/291
f 23/23/292 72/72/293 25/25/294
f 72/72/295 23/23/296 75/75/297
f 78/78/298 75/75/299 23/23/300
f 75/75/301 78/78/302 79/79/303
f 21/21/304 79/79/305 78/78/306
f 79/79/307 21/21/308 19/19/309
f 46/46/310 52/52/311 45/45/312
f 52/52/313 46/46/314 54/54/315
f 47/47/316 54/54/317 46/46/318
f 54/54/319 47/47/320 56/56/321
f 48/48/322 56/56/323 47/47/324
f 69/69/325 32/32/326 30/30/327
f 32/32/328 69/69/329 80/80/330
f 71/71/331 80/80/332 69/69/333
f 80/80/334 71/71/335 38/38/336
f 40/40/337 38/38/338 71/71/339
f 5/5/340 43/43/341 2/2/342
f 43/43/343 5/5/344 41/41/345
f 8/8/346 41/41/347 5/5/348
f 41/41/349 8/8/350 10/10/351
f 33/33/352 29/29/353 31/31/354
f 29/29/355 33/33/356 81/81/357
f 35/35/358 81/81/359 33/33/360
f 81/81/361 35/35/362 82/82/363
f 80/80/364 34/34/365 32/32/366
f 34/34/367 80/80/368 36/36/369
f 38/38/370 36/36/371 80/80/372
f 79/79/373 77/77/374 75/75/375
f 77/77/376 79/79/377 17/17/378
f 19/19/379 17/17/380 79/79/381
f 37/37/382 59/59/383 35/35/384
f 59/59/385 37/37/386 39/39/387
f 29/29/388 83/83/389 27/27/390
f 83/83/391 29/29/392 81/81/393
f 22/22/394 84/84/395 20/20/396
f 84/84/397 22/22/398 24/24/399
f 81/81/400 82/82/401 83/83/402
f 17/17/403 15/15/404 77/77/405
f 21/21/406 78/78/407 23/23/408
